<?xml version="1.0" encoding="UTF-8"?>
<svg version="1.1" xmlns="http://www.w3.org/2000/svg" width="500" height="500">
<path d="M0 0 C1.56161865 0.10465576 1.56161865 0.10465576 3.15478516 0.21142578 C6.62473125 0.44427157 10.09366941 0.68861311 13.5625 0.9375 C14.6340332 1.01210449 15.70556641 1.08670898 16.80957031 1.16357422 C22.74265203 1.61590926 28.49063599 2.37869796 34.33081055 3.51147461 C37.83190154 4.15225784 41.34283133 4.57156383 44.87646484 4.98828125 C54.45510251 6.11818273 63.91458807 7.62045262 73.375 9.5 C74.40189941 9.70149658 75.42879883 9.90299316 76.48681641 10.1105957 C81.82004205 11.20114447 86.92364952 12.5345175 92.06054688 14.33496094 C94.52826198 15.18114119 97.02093798 15.79169068 99.5625 16.375 C104.53632959 17.58657387 109.42496421 18.98386183 114.3125 20.5 C114.97000244 20.70157715 115.62750488 20.9031543 116.30493164 21.11083984 C120.68257356 22.48731773 124.80754067 24.15492004 129 26 C130.4562108 26.56797225 131.91438686 27.13094667 133.375 27.6875 C151.4840327 34.95855101 168.36539318 43.93953576 183 57 C183.65355469 57.57105469 184.30710937 58.14210937 184.98046875 58.73046875 C193.82979369 66.95467581 201.10217599 79.35943069 202.23828125 91.55859375 C202.5654674 104.24997216 198.9442625 114.17831879 191 124 C190.50371094 124.63550781 190.00742187 125.27101563 189.49609375 125.92578125 C155.74645478 167.40013322 87.59714883 178.88859435 38 186 C36.88850586 186.16806152 35.77701172 186.33612305 34.63183594 186.50927734 C11.61398146 189.82934635 -11.34850311 190.3254733 -34.55615234 190.26074219 C-38.67364767 190.2493485 -42.79088444 190.25613172 -46.90837097 190.26761627 C-70.44424334 190.32342592 -93.68855834 189.55499485 -117 186 C-118.33850395 185.80280374 -119.67704731 185.60587483 -121.015625 185.40917969 C-152.78469234 180.68007742 -185.64835536 174.48856478 -215 161 C-215.83047852 160.62214355 -216.66095703 160.24428711 -217.51660156 159.85498047 C-233.78944449 152.41364427 -249.96935766 144.57855883 -263 132 C-263 131.34 -263 130.68 -263 130 C-263.66 130 -264.32 130 -265 130 C-265 129.34 -265 128.68 -265 128 C-265.66 128 -266.32 128 -267 128 C-269.57865911 124.84336558 -271.76124194 121.40331382 -274 118 C-274.40992188 117.39414062 -274.81984375 116.78828125 -275.2421875 116.1640625 C-280.68506837 107.51452314 -282.26979435 97.26957263 -280.53125 87.31640625 C-278.52566777 78.90012368 -274.64991202 70.61715239 -269 64 C-268.34 64 -267.68 64 -267 64 C-266.7525 63.4225 -266.505 62.845 -266.25 62.25 C-253.45425743 39.21766337 -213.19711765 26.32174388 -189.5 19.375 C-187.37600717 18.77222548 -185.24955548 18.17956495 -183.12109375 17.59277344 C-181.01114177 17.00311375 -178.91178944 16.38427644 -176.8125 15.7578125 C-157.85466407 10.17534961 -138.42945018 6.76566292 -118.8359375 4.3515625 C-115.80560207 3.97590108 -112.77783861 3.58275972 -109.75 3.1875 C-99.51541426 1.86181734 -89.30868856 0.57406204 -79 0 C-78.35353516 -0.04366699 -77.70707031 -0.08733398 -77.04101562 -0.13232422 C-51.52930676 -1.8528005 -25.50341417 -1.85291716 0 0 Z M-227 70 C-225.56789849 74.02457244 -223.61378948 77.24278232 -221.1875 80.75 C-218.30174689 84.92513215 -215.75687227 89.1687343 -213.32299805 93.61376953 C-211.08253851 97.65478291 -208.70383121 101.6094831 -206.3125 105.5625 C-205.58450195 106.78936523 -205.58450195 106.78936523 -204.84179688 108.04101562 C-204.37451172 108.81251953 -203.90722656 109.58402344 -203.42578125 110.37890625 C-203.00723877 111.0757251 -202.58869629 111.77254395 -202.1574707 112.49047852 C-201.77550537 112.98862061 -201.39354004 113.4867627 -201 114 C-200.34 114 -199.68 114 -199 114 C-198.07871663 105.50993217 -198.07871663 105.50993217 -201.3125 98.125 C-202.199375 97.42375 -203.08625 96.7225 -204 96 C-205.24116887 93.71644321 -206.08937673 91.44430457 -207 89 C-207.66 89 -208.32 89 -209 89 C-209.10570312 88.43023437 -209.21140625 87.86046875 -209.3203125 87.2734375 C-210.10808707 84.63846737 -211.2922248 82.86923349 -212.875 80.625 C-215.24822029 77.17356184 -217.24661359 73.79900389 -219 70 C-221.64 70 -224.28 70 -227 70 Z M-150 70 C-150 84.52 -150 99.04 -150 114 C-148.02 114 -146.04 114 -144 114 C-144 99.48 -144 84.96 -144 70 C-145.98 70 -147.96 70 -150 70 Z M-132 70 C-131.68305176 71.14146484 -131.36610352 72.28292969 -131.03955078 73.45898438 C-129.9407039 77.86792743 -129.57001496 82.1284127 -129.3671875 86.65625 C-129.32562531 87.44398804 -129.28406311 88.23172607 -129.24124146 89.04333496 C-129.11179267 91.52857883 -128.99321065 94.01419889 -128.875 96.5 C-128.78848214 98.1979536 -128.70124918 99.89587091 -128.61328125 101.59375 C-128.40059212 105.72879366 -128.19763836 109.86421077 -128 114 C-126.35 114 -124.7 114 -123 114 C-123 99.48 -123 84.96 -123 70 C-125.97 70 -128.94 70 -132 70 Z M-115 70 C-113.99490028 73.85288226 -112.8352858 77.50797894 -111.3125 81.1875 C-108.74055785 87.42809925 -106.60928726 93.82288693 -104.4621582 100.21948242 C-104.17300537 101.06486572 -103.88385254 101.91024902 -103.5859375 102.78125 C-103.3286084 103.54501953 -103.0712793 104.30878906 -102.80615234 105.09570312 C-102.0599324 107.19040331 -102.0599324 107.19040331 -100 109 C-97.57801057 105.05272024 -97.57801057 105.05272024 -97.3046875 100.58984375 C-97.97983163 98.07512151 -98.76830525 95.68567216 -99.6875 93.25 C-101.59389915 88.12171593 -103.43423435 82.97337994 -105.25 77.8125 C-105.52030029 77.04518555 -105.79060059 76.27787109 -106.0690918 75.48730469 C-106.71319726 73.65836837 -107.35666762 71.8292084 -108 70 C-110.31 70 -112.62 70 -115 70 Z M-85 70 C-85.66 71.98 -86.32 73.96 -87 76 C-86.67 76.33 -86.34 76.66 -86 77 C-85.91141354 79.73894085 -85.88476521 82.4525327 -85.90234375 85.19140625 C-85.9037587 86.01124496 -85.90517365 86.83108368 -85.90663147 87.67576599 C-85.91224711 90.30471382 -85.92480221 92.93357773 -85.9375 95.5625 C-85.94251299 97.34049357 -85.94707624 99.11848846 -85.95117188 100.89648438 C-85.96222161 105.26435545 -85.97949669 109.63216348 -86 114 C-84.02 114 -82.04 114 -80 114 C-80 99.48 -80 84.96 -80 70 C-81.65 70 -83.3 70 -85 70 Z M-74 70 C-74 84.52 -74 99.04 -74 114 C-72.02 114 -70.04 114 -68 114 C-68 99.48 -68 84.96 -68 70 C-69.98 70 -71.96 70 -74 70 Z M-50 70 C-48.69593116 72.01920337 -47.36176581 74.01924973 -46 76 C-45.67 76 -45.34 76 -45 76 C-45 74.02 -45 72.04 -45 70 C-46.65 70 -48.3 70 -50 70 Z M-34 70 C-34.33 84.52 -34.66 99.04 -35 114 C-32.69 114 -30.38 114 -28 114 C-28 99.48 -28 84.96 -28 70 C-29.98 70 -31.96 70 -34 70 Z M-17 70 C-16.34 70.66 -15.68 71.32 -15 72 C-15 71.34 -15 70.68 -15 70 C-15.66 70 -16.32 70 -17 70 Z M19 70 C19 76.27 19 82.54 19 89 C17 88 17 88 16.03515625 85.63671875 C15.38929803 83.67839362 14.7434645 81.72006036 14.09765625 79.76171875 C13.02550215 77.06416376 11.94899213 75.14236472 10 73 C9.34 73 8.68 73 8 73 C8.16242188 74.08152344 8.32484375 75.16304688 8.4921875 76.27734375 C9.16826724 81.70389899 9.14615429 87.1011681 9.125 92.5625 C9.12886719 93.56474609 9.13273437 94.56699219 9.13671875 95.59960938 C9.12981699 100.8414976 8.91258258 105.83594141 8 111 C12.18899945 107.39280603 14.10335958 104.03647156 16.10546875 98.890625 C17 97 17 97 19 96 C19.33 101.94 19.66 107.88 20 114 C21.98 114 23.96 114 26 114 C26.89392492 99.23706302 26.98997772 84.75828326 26 70 C23.69 70 21.38 70 19 70 Z M47 70 C46.04885729 84.75673107 46.04885729 99.24326893 47 114 C48.65 114 50.3 114 52 114 C52 99.48 52 84.96 52 70 C50.35 70 48.7 70 47 70 Z M58 70 C58 84.52 58 99.04 58 114 C60.31 114 62.62 114 65 114 C65 99.48 65 84.96 65 70 C62.69 70 60.38 70 58 70 Z M84 70 C84 70.66 84 71.32 84 72 C84.66 72 85.32 72 86 72 C86.66 74.31 87.32 76.62 88 79 C88.66 79 89.32 79 90 79 C89.91813841 82.64668507 89.80538972 86.29181587 89.6875 89.9375 C89.66494141 90.95908203 89.64238281 91.98066406 89.61914062 93.03320312 C89.34704168 100.77565482 88.35437126 107.4684431 84 114 C87.96 114 91.92 114 96 114 C96 99.48 96 84.96 96 70 C92.04 70 88.08 70 84 70 Z M120 70 C120.01571045 70.6077124 120.0314209 71.2154248 120.04760742 71.84155273 C120.73275629 102.53448742 120.73275629 102.53448742 115 114 C118.3 114 121.6 114 125 114 C125.33 99.48 125.66 84.96 126 70 C124.02 70 122.04 70 120 70 Z M-186 72 C-187.37562854 73.28965176 -188.70766393 74.62689293 -190 76 C-190 76.66 -190 77.32 -190 78 C-190.66 78 -191.32 78 -192 78 C-195.49388934 87.09990387 -195.90376178 94.95845618 -192.125 104.0625 C-190.66140164 107.24899564 -190.0597978 107.9601348 -187 110 C-187.0721875 109.35675781 -187.144375 108.71351563 -187.21875 108.05078125 C-188.29229499 97.59862799 -188.64293665 87.56485627 -186.4375 77.2421875 C-185.90424482 74.88999999 -185.90424482 74.88999999 -186 72 Z M-171 72 C-170.7834375 72.66902344 -170.566875 73.33804688 -170.34375 74.02734375 C-166.92281413 85.82640497 -167.24034375 97.90236331 -169 110 C-165.90557002 109.33701209 -165.90557002 109.33701209 -164.8671875 107.0390625 C-164.53976563 106.24242187 -164.21234375 105.44578125 -163.875 104.625 C-163.54242188 103.83351563 -163.20984375 103.04203125 -162.8671875 102.2265625 C-159.51037521 93.60772014 -160.43543916 84.49039097 -164 76 C-166.33598317 73.27198441 -166.33598317 73.27198441 -169 72 C-169.66 72 -170.32 72 -171 72 Z M-11.375 73.3125 C-16.07057817 78.11987765 -17.08174579 84.91854718 -17.4375 91.5 C-17.23168483 96.92960013 -15.53977618 102.21832263 -13 107 C-10.9752391 108.80716766 -10.9752391 108.80716766 -9 110 C-9.16113281 109.06929687 -9.32226562 108.13859375 -9.48828125 107.1796875 C-10.19971842 102.17066613 -10.18407327 97.17600194 -10.1875 92.125 C-10.19974609 91.18269531 -10.21199219 90.24039063 -10.22460938 89.26953125 C-10.23719453 83.20348579 -9.52565582 77.87347338 -8 72 C-9.30638252 71.91938565 -9.30638252 71.91938565 -11.375 73.3125 Z M-58.5625 90.5 C-59.036875 90.995 -59.51125 91.49 -60 92 C-59.01 92.33 -58.02 92.66 -57 93 C-56.67 91.68 -56.34 90.36 -56 89 C-57.24076302 88.88457803 -57.24076302 88.88457803 -58.5625 90.5 Z M75 89 C75 89.66 75 90.32 75 91 C74.01 91.495 74.01 91.495 73 92 C73.99 92.33 74.98 92.66 76 93 C75.67 91.68 75.34 90.36 75 89 Z M-46 109 C-47.03013277 110.64821244 -48.03114628 112.31503702 -49 114 C-47.68 114 -46.36 114 -45 114 C-45 112.35 -45 110.7 -45 109 C-45.33 109 -45.66 109 -46 109 Z M146 111 C145.67 111.99 145.34 112.98 145 114 C145.99 113.67 146.98 113.34 148 113 C148 112.34 148 111.68 148 111 C147.34 111 146.68 111 146 111 Z " fill="#71C3C9" transform="translate(289,159)"/>
<path d="M0 0 C2.00008026 0.3328514 4.00006267 0.66629087 6 1 C8.3120952 1.04326728 10.62534888 1.04016766 12.9375 1 C20.67089165 0.93862388 28.29135445 1.38768206 36 2 C36.33 1.34 36.66 0.68 37 0 C38.32 0.33 39.64 0.66 41 1 C41.495 3.475 41.495 3.475 42 6 C42.99 6 43.98 6 45 6 C45 5.01 45 4.02 45 3 C45.99 2.67 46.98 2.34 48 2 C48 2.66 48 3.32 48 4 C48.66 4 49.32 4 50 4 C50 4.66 50 5.32 50 6 C49.2575 6.28875 48.515 6.5775 47.75 6.875 C46.8425 7.24625 45.935 7.6175 45 8 C44.3090625 8.25394531 43.618125 8.50789062 42.90625 8.76953125 C40.81431355 9.85502842 40.81431355 9.85502842 40.171875 12.14453125 C39.01337958 19.47094211 38.78790575 26.58848426 39 34 C38.34 34 37.68 34 37 34 C34.87718696 26.9013132 35.20088219 18.82284966 38 12 C38 11.01 38 10.02 38 9 C34.81237635 6.87491756 32.73487777 6.4979837 29 6 C29.00523682 7.29736084 29.01047363 8.59472168 29.01586914 9.93139648 C29.03391469 14.72647415 29.04543037 19.5215488 29.05493164 24.31665039 C29.05997288 26.39543156 29.06680574 28.47420916 29.07543945 30.55297852 C29.08751422 33.53402586 29.09323024 36.51502649 29.09765625 39.49609375 C29.10281754 40.43150497 29.10797882 41.3669162 29.11329651 42.33067322 C29.11337204 43.19149002 29.11344757 44.05230682 29.11352539 44.93920898 C29.115746 45.70087875 29.11796661 46.46254852 29.12025452 47.24729919 C29 49 29 49 28 50 C21.48399502 50.818289 14.8744421 51.08317096 8.3125 51.25 C7.33925781 51.27578125 6.36601562 51.3015625 5.36328125 51.328125 C4.58339844 51.21984375 3.80351562 51.1115625 3 51 C2.34 50.01 1.68 49.02 1 48 C0.67 48.66 0.34 49.32 0 50 C-1.9490625 49.9690625 -1.9490625 49.9690625 -3.9375 49.9375 C-8.69382325 49.92995028 -13.28388953 50.40112883 -18 51 C-18 50.34 -18 49.68 -18 49 C-18.66 49 -19.32 49 -20 49 C-20 33.82 -20 18.64 -20 3 C-17.36 3 -14.72 3 -12 3 C-12 2.34 -12 1.68 -12 1 C-10.82630859 1.01740234 -10.82630859 1.01740234 -9.62890625 1.03515625 C-8.61699219 1.04417969 -7.60507813 1.05320313 -6.5625 1.0625 C-5.04849609 1.07990234 -5.04849609 1.07990234 -3.50390625 1.09765625 C-1.05978933 1.28612676 -1.05978933 1.28612676 0 0 Z M-19 4 C-19 18.52 -19 33.04 -19 48 C-17.02 48 -15.04 48 -13 48 C-13 33.48 -13 18.96 -13 4 C-14.98 4 -16.96 4 -19 4 Z M5 4 C6.30406884 6.01920337 7.63823419 8.01924973 9 10 C9.33 10 9.66 10 10 10 C10 8.02 10 6.04 10 4 C8.35 4 6.7 4 5 4 Z M21 4 C20.67 18.52 20.34 33.04 20 48 C22.31 48 24.62 48 27 48 C27 33.48 27 18.96 27 4 C25.02 4 23.04 4 21 4 Z M38 4 C38.66 4.66 39.32 5.32 40 6 C40 5.34 40 4.68 40 4 C39.34 4 38.68 4 38 4 Z M-3.5625 24.5 C-4.036875 24.995 -4.51125 25.49 -5 26 C-4.01 26.33 -3.02 26.66 -2 27 C-1.67 25.68 -1.34 24.36 -1 23 C-2.24076302 22.88457803 -2.24076302 22.88457803 -3.5625 24.5 Z M9 43 C7.96986723 44.64821244 6.96885372 46.31503702 6 48 C7.32 48 8.64 48 10 48 C10 46.35 10 44.7 10 43 C9.67 43 9.34 43 9 43 Z " fill="#72C3C9" transform="translate(234,225)"/>
<path d="M0 0 C3 1 3 1 4 2 C5.41570123 2.08651611 6.835595 2.10704904 8.25390625 2.09765625 C9.10791016 2.09443359 9.96191406 2.09121094 10.84179688 2.08789062 C12.18854492 2.07532227 12.18854492 2.07532227 13.5625 2.0625 C14.46419922 2.05798828 15.36589844 2.05347656 16.29492188 2.04882812 C18.53001314 2.03700225 20.76497437 2.0205222 23 2 C23 3.32 23 4.64 23 6 C22.01 6.33 21.02 6.66 20 7 C19.34 6.67 18.68 6.34 18 6 C18.33 19.86 18.66 33.72 19 48 C19.99 48.495 19.99 48.495 21 49 C21 49.66 21 50.32 21 51 C16.96558012 51.76090043 13.1887575 52.11055646 9.0859375 52.0625 C7.99539063 52.05476563 6.90484375 52.04703125 5.78125 52.0390625 C4.6571875 52.02617187 3.533125 52.01328125 2.375 52 C0.13286114 51.97446311 -2.10933487 51.95344001 -4.3515625 51.9375 C-5.33979004 51.92589844 -6.32801758 51.91429687 -7.34619141 51.90234375 C-11.19490082 52.04397059 -13.23861235 52.23861235 -16 55 C-16.33 53.68 -16.66 52.36 -17 51 C-22.44693314 50.90311779 -27.63904667 50.87137825 -33 52 C-34.4783226 49.04335481 -34.06032783 46.25770263 -34 43 C-33.67 43 -33.34 43 -33 43 C-33 44.98 -33 46.96 -33 49 C-31.35 49 -29.7 49 -28 49 C-28 34.48 -28 19.96 -28 5 C-29.65 5 -31.3 5 -33 5 C-33 14.57 -33 24.14 -33 34 C-33.66 33.67 -34.32 33.34 -35 33 C-36.14289156 27.52993412 -36.12083769 22.13150525 -36.0625 16.5625 C-36.05798828 15.73556641 -36.05347656 14.90863281 -36.04882812 14.05664062 C-36.03715811 12.03772854 -36.01922718 10.01885426 -36 8 C-36.66 7.67 -37.32 7.34 -38 7 C-37 4 -37 4 -35.23828125 2.78515625 C-32.5671239 1.84815341 -30.97764145 2.02176464 -28.1875 2.4375 C-21.03910641 3.27051064 -14.14735165 2.62696067 -7 2 C-7 2.66 -7 3.32 -7 4 C-6.401875 3.67 -5.80375 3.34 -5.1875 3 C-3 2 -3 2 0 2 C0 1.34 0 0.68 0 0 Z M-22 5 C-22 19.52 -22 34.04 -22 49 C-19.69 49 -17.38 49 -15 49 C-15 34.48 -15 19.96 -15 5 C-17.31 5 -19.62 5 -22 5 Z M4 5 C4 5.66 4 6.32 4 7 C4.66 7 5.32 7 6 7 C6.66 9.31 7.32 11.62 8 14 C8.66 14 9.32 14 10 14 C9.91813841 17.64668507 9.80538972 21.29181587 9.6875 24.9375 C9.66494141 25.95908203 9.64238281 26.98066406 9.61914062 28.03320312 C9.34704168 35.77565482 8.35437126 42.4684431 4 49 C7.96 49 11.92 49 16 49 C16 34.48 16 19.96 16 5 C12.04 5 8.08 5 4 5 Z M-5 24 C-5 24.66 -5 25.32 -5 26 C-5.99 26.495 -5.99 26.495 -7 27 C-6.01 27.33 -5.02 27.66 -4 28 C-4.33 26.68 -4.66 25.36 -5 24 Z " fill="#74C3CA" transform="translate(369,224)"/>
<path d="M0 0 C4.38889325 0.66498383 7.9811485 2.18757677 12 4 C12 3.01 12 2.02 12 1 C17.625 0.75 17.625 0.75 21 3 C21.66 2.67 22.32 2.34 23 2 C28.445 2.495 28.445 2.495 34 3 C34 17.52 34 32.04 34 47 C33.67 47 33.34 47 33 47 C33 32.81 33 18.62 33 4 C31.02 4 29.04 4 27 4 C27.24339111 4.76219849 27.24339111 4.76219849 27.49169922 5.53979492 C28.17432323 8.84373448 28.12992316 11.98956671 28.1328125 15.36328125 C28.13376923 16.07348923 28.13472595 16.7836972 28.13571167 17.51542664 C28.1363908 19.0157378 28.13455515 20.51605194 28.13037109 22.01635742 C28.12504286 24.29417661 28.13031279 26.57179648 28.13671875 28.84960938 C28.13605746 30.31250043 28.13477524 31.77539136 28.1328125 33.23828125 C28.13483673 33.91143875 28.13686096 34.58459625 28.13894653 35.27815247 C28.11777738 39.62489663 27.69754246 43.72296336 27 48 C26.67 48 26.34 48 26 48 C25.83121222 43.16218258 25.67078873 38.32418341 25.51782227 33.48583984 C25.46473449 31.84286193 25.40943522 30.19995382 25.35180664 28.55712891 C25.26895858 26.18407238 25.19429373 23.81087146 25.12109375 21.4375 C25.09405869 20.71320801 25.06702362 19.98891602 25.03916931 19.24267578 C24.89972929 14.38481034 25.29691217 9.81035172 26 5 C22.23811271 5.34351323 22.23811271 5.34351323 19 7 C17.14981594 10.52441401 16.03261216 14.16458341 15 18 C13.23537317 14.91190305 13 13.76687864 13 10 C10.61837991 8.58614089 10.61837991 8.58614089 8 8 C8.144375 8.52464844 8.28875 9.04929688 8.4375 9.58984375 C9.80718923 15.30639393 10.19261898 20.77464598 10.1875 26.625 C10.1884668 27.68062134 10.1884668 27.68062134 10.18945312 28.75756836 C10.14003747 33.57391007 9.66986191 38.2305832 9 43 C10.32 43.33 11.64 43.66 13 44 C12 46 12 46 9 48 C6.3125 48.125 6.3125 48.125 4 48 C3.67 47.34 3.34 46.68 3 46 C-0.45298311 46.48341764 -3.88578512 46.97845002 -7.3125 47.625 C-10 48 -10 48 -12 47 C-12.625 44.4375 -12.625 44.4375 -13 42 C-12.34 42.33 -11.68 42.66 -11 43 C-11.10828125 42.14341797 -11.10828125 42.14341797 -11.21875 41.26953125 C-12.4787692 30.26186356 -12.43281214 19.83904693 -10 9 C-11.24076302 8.88457803 -11.24076302 8.88457803 -12.5625 10.5 C-13.036875 10.995 -13.51125 11.49 -14 12 C-14.33 10.68 -14.66 9.36 -15 8 C-14.01 7.67 -13.02 7.34 -12 7 C-12 6.34 -12 5.68 -12 5 C-9.69 4.34 -7.38 3.68 -5 3 C-5 3.66 -5 4.32 -5 5 C-4.01 5 -3.02 5 -2 5 C-2.33 4.01 -2.66 3.02 -3 2 C-2.01 2 -1.02 2 0 2 C0 1.34 0 0.68 0 0 Z " fill="#73C2C9" transform="translate(112,225)"/>
<path d="M0 0 C2.00008026 0.3328514 4.00006267 0.66629087 6 1 C8.3120952 1.04326728 10.62534888 1.04016766 12.9375 1 C20.67089165 0.93862388 28.29135445 1.38768206 36 2 C36.33 1.34 36.66 0.68 37 0 C38.32 0.33 39.64 0.66 41 1 C41.495 3.475 41.495 3.475 42 6 C42.99 6 43.98 6 45 6 C45 5.01 45 4.02 45 3 C45.99 2.67 46.98 2.34 48 2 C48 2.66 48 3.32 48 4 C48.66 4 49.32 4 50 4 C50 4.66 50 5.32 50 6 C49.2575 6.28875 48.515 6.5775 47.75 6.875 C46.8425 7.24625 45.935 7.6175 45 8 C44.3090625 8.25394531 43.618125 8.50789062 42.90625 8.76953125 C40.81431355 9.85502842 40.81431355 9.85502842 40.171875 12.14453125 C39.01337958 19.47094211 38.78790575 26.58848426 39 34 C38.34 34 37.68 34 37 34 C34.87718696 26.9013132 35.20088219 18.82284966 38 12 C38 11.01 38 10.02 38 9 C34.81237635 6.87491756 32.73487777 6.4979837 29 6 C29.00523682 7.29736084 29.01047363 8.59472168 29.01586914 9.93139648 C29.03391469 14.72647415 29.04543037 19.5215488 29.05493164 24.31665039 C29.05997288 26.39543156 29.06680574 28.47420916 29.07543945 30.55297852 C29.08751422 33.53402586 29.09323024 36.51502649 29.09765625 39.49609375 C29.10281754 40.43150497 29.10797882 41.3669162 29.11329651 42.33067322 C29.11337204 43.19149002 29.11344757 44.05230682 29.11352539 44.93920898 C29.115746 45.70087875 29.11796661 46.46254852 29.12025452 47.24729919 C29 49 29 49 28 50 C26.31816052 50.23287008 24.6287584 50.41264166 22.9375 50.5625 C22.01839844 50.64628906 21.09929687 50.73007812 20.15234375 50.81640625 C19.44207031 50.87699219 18.73179687 50.93757813 18 51 C17.17451409 48.13496092 16.89759273 45.66657936 16.97827148 42.69042969 C16.99836777 41.84986023 17.01846405 41.00929077 17.03916931 40.14324951 C17.06620438 39.24519592 17.09323944 38.34714233 17.12109375 37.421875 C17.15651024 36.03201385 17.15651024 36.03201385 17.19264221 34.61407471 C17.26911883 31.65922107 17.35321207 28.70464013 17.4375 25.75 C17.4907367 23.74480494 17.54347699 21.73959663 17.59570312 19.734375 C17.72471236 14.8227445 17.86055221 9.91134478 18 5 C16.35 5.33 14.7 5.66 13 6 C12.67 8.97 12.34 11.94 12 15 C9.525 14.505 9.525 14.505 7 14 C7.33 12.68 7.66 11.36 8 10 C7.01 10.33 6.02 10.66 5 11 C4.67 9.02 4.34 7.04 4 5 C3.18789062 5.24556641 3.18789062 5.24556641 2.359375 5.49609375 C-0.40222593 6.08590587 -2.92818139 6.09609308 -5.75 6.0625 C-6.73484375 6.05347656 -7.7196875 6.04445312 -8.734375 6.03515625 C-9.48203125 6.02355469 -10.2296875 6.01195312 -11 6 C-10.88613541 8.77170395 -10.75939222 11.54178046 -10.625 14.3125 C-10.5940625 15.09818359 -10.563125 15.88386719 -10.53125 16.69335938 C-10.49257812 17.45068359 -10.45390625 18.20800781 -10.4140625 18.98828125 C-10.3826416 19.68477783 -10.3512207 20.38127441 -10.31884766 21.09887695 C-10.07881747 23.32532739 -10.07881747 23.32532739 -8 26 C-8.99 26 -9.98 26 -11 26 C-10.86116581 29.43782031 -10.71272946 32.87516029 -10.5625 36.3125 C-10.52318359 37.28896484 -10.48386719 38.26542969 -10.44335938 39.27148438 C-10.40146484 40.20927734 -10.35957031 41.14707031 -10.31640625 42.11328125 C-10.27974854 42.97735596 -10.24309082 43.84143066 -10.20532227 44.73168945 C-10.07252646 47.1647826 -10.07252646 47.1647826 -9 50 C-13.455 50.495 -13.455 50.495 -18 51 C-18 50.34 -18 49.68 -18 49 C-18.66 49 -19.32 49 -20 49 C-20 33.82 -20 18.64 -20 3 C-17.36 3 -14.72 3 -12 3 C-12 2.34 -12 1.68 -12 1 C-10.82630859 1.01740234 -10.82630859 1.01740234 -9.62890625 1.03515625 C-8.61699219 1.04417969 -7.60507813 1.05320313 -6.5625 1.0625 C-5.04849609 1.07990234 -5.04849609 1.07990234 -3.50390625 1.09765625 C-1.05978933 1.28612676 -1.05978933 1.28612676 0 0 Z M-19 4 C-19 18.52 -19 33.04 -19 48 C-17.02 48 -15.04 48 -13 48 C-13 33.48 -13 18.96 -13 4 C-14.98 4 -16.96 4 -19 4 Z M5 4 C6.30406884 6.01920337 7.63823419 8.01924973 9 10 C9.33 10 9.66 10 10 10 C10 8.02 10 6.04 10 4 C8.35 4 6.7 4 5 4 Z M21 4 C20.67 18.52 20.34 33.04 20 48 C22.31 48 24.62 48 27 48 C27 33.48 27 18.96 27 4 C25.02 4 23.04 4 21 4 Z M38 4 C38.66 4.66 39.32 5.32 40 6 C40 5.34 40 4.68 40 4 C39.34 4 38.68 4 38 4 Z " fill="#8FCBD1" transform="translate(234,225)"/>
<path d="M0 0 C2.6171875 0.05859375 2.6171875 0.05859375 5.875 0.4375 C12.38738414 1.06187574 18.5154978 0.7594462 25 0 C25 0.66 25 1.32 25 2 C23.68 2.33 22.36 2.66 21 3 C21.33 9.93 21.66 16.86 22 24 C22.66 24 23.32 24 24 24 C23.67 24.99 23.34 25.98 23 27 C22.85426942 28.47965926 22.75336732 29.96403843 22.68359375 31.44921875 C22.64169922 32.29677734 22.59980469 33.14433594 22.55664062 34.01757812 C22.51732422 34.89865234 22.47800781 35.77972656 22.4375 36.6875 C22.39431641 37.58017578 22.35113281 38.47285156 22.30664062 39.39257812 C22.20064647 41.59490108 22.09857949 43.79733473 22 46 C22.99 46 23.98 46 25 46 C25 46.99 25 47.98 25 49 C23.84242188 48.98839844 22.68484375 48.97679687 21.4921875 48.96484375 C19.95312662 48.95545923 18.41406399 48.94635974 16.875 48.9375 C16.11445313 48.92912109 15.35390625 48.92074219 14.5703125 48.91210938 C10.2610356 48.89353491 6.24483526 49.13882735 2 50 C0.5216774 47.04335481 0.93967217 44.25770263 1 41 C1.33 41 1.66 41 2 41 C2 42.98 2 44.96 2 47 C3.65 47 5.3 47 7 47 C7 32.48 7 17.96 7 3 C5.35 3 3.7 3 2 3 C2 12.57 2 22.14 2 32 C1.34 31.67 0.68 31.34 0 31 C-1.14289156 25.52993412 -1.12083769 20.13150525 -1.0625 14.5625 C-1.05798828 13.73556641 -1.05347656 12.90863281 -1.04882812 12.05664062 C-1.03715811 10.03772854 -1.01922718 8.01885426 -1 6 C-1.66 5.67 -2.32 5.34 -3 5 C-2 2 -2 2 0 0 Z M13 3 C13 17.52 13 32.04 13 47 C15.31 47 17.62 47 20 47 C20 32.48 20 17.96 20 3 C17.69 3 15.38 3 13 3 Z " fill="#91C4C9" transform="translate(334,226)"/>
<path d="M0 0 C2.31 0.66 4.62 1.32 7 2 C7.33 3.32 7.66 4.64 8 6 C7.01 6.495 7.01 6.495 6 7 C6 6.01 6 5.02 6 4 C3.69 4 1.38 4 -1 4 C-0.5875 4.94875 -0.175 5.8975 0.25 6.875 C9 27.34669811 9 27.34669811 9 32 C8.01 31.67 7.02 31.34 6 31 C5.05078125 28.71484375 5.05078125 28.71484375 4.3125 25.9375 C4.06113281 25.01839844 3.80976563 24.09929687 3.55078125 23.15234375 C3.36902344 22.44207031 3.18726563 21.73179687 3 21 C2.67 21 2.34 21 2 21 C1.67 29.58 1.34 38.16 1 47 C2.32 47 3.64 47 5 47 C4.67 47.99 4.34 48.98 4 50 C2.54478745 50.22911857 1.08541209 50.43177625 -0.375 50.625 C-1.18710938 50.74101562 -1.99921875 50.85703125 -2.8359375 50.9765625 C-7.36443612 51.01010693 -11.59805338 49.99705441 -16 49 C-16.01458252 47.90534424 -16.02916504 46.81068848 -16.04418945 45.68286133 C-16.10228739 41.61043095 -16.17951927 37.53854685 -16.26245117 33.46655273 C-16.29564654 31.70622645 -16.32369524 29.94579512 -16.34643555 28.18530273 C-16.3800812 25.65042475 -16.4324006 23.11650477 -16.48828125 20.58203125 C-16.49786613 19.40674614 -16.49786613 19.40674614 -16.50764465 18.2077179 C-16.63222976 13.54767698 -17.44726737 10.84926439 -20 7 C-20 5.68 -20 4.36 -20 3 C-18.06318839 2.91892417 -16.1254066 2.86077525 -14.1875 2.8125 C-13.10855469 2.77769531 -12.02960938 2.74289063 -10.91796875 2.70703125 C-8 3 -8 3 -6.11328125 4.51171875 C-5.74589844 5.00285156 -5.37851563 5.49398437 -5 6 C-5.66 6 -6.32 6 -7 6 C-7 19.53 -7 33.06 -7 47 C-5.68 47 -4.36 47 -3 47 C-3.01571045 45.71834961 -3.0314209 44.43669922 -3.04760742 43.11621094 C-3.10191556 38.36025275 -3.13635342 33.60432198 -3.16479492 28.84814453 C-3.1798795 26.78982941 -3.20034987 24.73154642 -3.22631836 22.67333984 C-3.26271585 19.71443756 -3.27972966 16.75596033 -3.29296875 13.796875 C-3.30845261 12.87694763 -3.32393646 11.95702026 -3.33988953 11.00921631 C-3.34158031 4.58770048 -3.34158031 4.58770048 -1.48168945 1.38769531 C-0.99273193 0.92975586 -0.50377441 0.47181641 0 0 Z M-18 4 C-17.68305176 5.14146484 -17.36610352 6.28292969 -17.03955078 7.45898438 C-15.9407039 11.86792743 -15.57001496 16.1284127 -15.3671875 20.65625 C-15.32562531 21.44398804 -15.28406311 22.23172607 -15.24124146 23.04333496 C-15.11179267 25.52857883 -14.99321065 28.01419889 -14.875 30.5 C-14.78848214 32.1979536 -14.70124918 33.89587091 -14.61328125 35.59375 C-14.40059212 39.72879366 -14.19763836 43.86421077 -14 48 C-12.35 48 -10.7 48 -9 48 C-9 33.48 -9 18.96 -9 4 C-11.97 4 -14.94 4 -18 4 Z " fill="#7EC8CF" transform="translate(175,225)"/>
<path d="M0 0 C1.9375 0.375 1.9375 0.375 4 1 C4.33 1.66 4.66 2.32 5 3 C5.54140625 2.83628906 6.0828125 2.67257813 6.640625 2.50390625 C9.40222593 1.91409413 11.92818139 1.90390692 14.75 1.9375 C15.73484375 1.94652344 16.7196875 1.95554688 17.734375 1.96484375 C18.85585938 1.98224609 18.85585938 1.98224609 20 2 C20.33 3.65 20.66 5.3 21 7 C20.34 7 19.68 7 19 7 C19.12568359 8.67449219 19.12568359 8.67449219 19.25390625 10.3828125 C20.10617284 22.9977216 19.79039144 35.3877901 19 48 C19.66 48 20.32 48 21 48 C20.67 49.32 20.34 50.64 20 52 C16.04 51.67 12.08 51.34 8 51 C8.99 50.505 8.99 50.505 10 50 C9.67 45.71 9.34 41.42 9 37 C8.34 37 7.68 37 7 37 C6.67 38.32 6.34 39.64 6 41 C5.34 40.67 4.68 40.34 4 40 C5.32 37.03 6.64 34.06 8 31 C8.66 31 9.32 31 10 31 C11.59412284 34.18824568 11.10174735 37.62896662 11.0625 41.125 C11.05798828 41.87910156 11.05347656 42.63320313 11.04882812 43.41015625 C11.03703499 45.27347127 11.01909942 47.13674555 11 49 C12.98 49 14.96 49 17 49 C17 34.48 17 19.96 17 5 C15.02 5.33 13.04 5.66 11 6 C10.67 11.94 10.34 17.88 10 24 C9.01 23.67 8.02 23.34 7 23 C6.0078125 20.70703125 6.0078125 20.70703125 5.125 17.8125 C3.45692841 12.84707761 1.63388786 9.73482919 -2 6 C-1.34 6 -0.68 6 0 6 C0 4.02 0 2.04 0 0 Z " fill="#90C7CC" transform="translate(298,224)"/>
<path d="M0 0 C1.04639648 0.06977051 2.09279297 0.13954102 3.17089844 0.21142578 C6.65632477 0.44401799 10.14071063 0.68848296 13.625 0.9375 C14.70491211 1.01210449 15.78482422 1.08670898 16.89746094 1.16357422 C23.3928704 1.65724149 29.64810351 2.54962965 36 4 C34.125 5.0625 34.125 5.0625 32 6 C31.01 5.505 31.01 5.505 30 5 C28.56230441 4.86045631 27.11915288 4.77460137 25.67578125 4.71875 C24.81146484 4.68136719 23.94714844 4.64398438 23.05664062 4.60546875 C21.69829102 4.55326172 21.69829102 4.55326172 20.3125 4.5 C14.4622484 4.27024466 8.80018074 3.82859725 3 3 C-27.40978656 0.71229717 -58.83378632 1.05059106 -89.20703125 3.58203125 C-90.40384521 3.6814502 -91.60065918 3.78086914 -92.83374023 3.88330078 C-95.14551456 4.08188546 -97.45633704 4.29198227 -99.76586914 4.51513672 C-100.7996167 4.60682129 -101.83336426 4.69850586 -102.8984375 4.79296875 C-103.81286621 4.8808667 -104.72729492 4.96876465 -105.66943359 5.05932617 C-108 5 -108 5 -111 3 C-74.06763122 -0.68042636 -37.09273874 -2.69025827 0 0 Z " fill="#A2D0D3" transform="translate(289,159)"/>
<path d="M0 0 C-0.10699219 0.81082031 -0.21398437 1.62164062 -0.32421875 2.45703125 C-1.08286869 9.46434625 -0.93836666 14.95957925 1.30859375 21.66015625 C2 24 2 24 2 28 C1.34 27.67 0.68 27.34 0 27 C0.33 26.34 0.66 25.68 1 25 C0.01 24.67 -0.98 24.34 -2 24 C-2.03738281 24.69867188 -2.07476562 25.39734375 -2.11328125 26.1171875 C-2.17902344 27.02726562 -2.24476562 27.93734375 -2.3125 28.875 C-2.37050781 29.77992188 -2.42851563 30.68484375 -2.48828125 31.6171875 C-3 34 -3 34 -6 36 C-7.32 36 -8.64 36 -10 36 C-10.4125 34.96875 -10.825 33.9375 -11.25 32.875 C-12.78037529 29.28478308 -14.78442854 26.21615212 -17 23 C-17.69429379 21.6808418 -18.37530495 20.35350594 -19 19 C-18.01 18.67 -17.02 18.34 -16 18 C-14.66121428 20.1217363 -13.32884524 22.24705188 -12 24.375 C-11.6184375 24.97828125 -11.236875 25.5815625 -10.84375 26.203125 C-8 30.7734375 -8 30.7734375 -8 33 C-7.34 33 -6.68 33 -6 33 C-6 28.71 -6 24.42 -6 20 C-6.99 19.67 -7.98 19.34 -9 19 C-10.421875 17.2578125 -10.421875 17.2578125 -11.75 15.125 C-12.19859375 14.42632812 -12.6471875 13.72765625 -13.109375 13.0078125 C-14 11 -14 11 -13 8 C-10.525 9.98 -10.525 9.98 -8 12 C-7.95101562 11.21753906 -7.90203125 10.43507812 -7.8515625 9.62890625 C-7.77679688 8.61699219 -7.70203125 7.60507813 -7.625 6.5625 C-7.55539063 5.55316406 -7.48578125 4.54382813 -7.4140625 3.50390625 C-7.27742188 2.67761719 -7.14078125 1.85132813 -7 1 C-4.53721199 -0.231394 -2.7204945 -0.07159196 0 0 Z " fill="#8DCBD1" transform="translate(96,240)"/>
<path d="M0 0 C3.3 0 6.6 0 10 0 C9.67 15.51 9.34 31.02 9 47 C3.67718167 48.77427278 0.46183727 49.14213539 -4.875 48.625 C-5.90753906 48.53992188 -5.90753906 48.53992188 -6.9609375 48.453125 C-8.64157689 48.31307172 -10.32096005 48.15807755 -12 48 C-11.01 47.505 -11.01 47.505 -10 47 C-10 46.34 -10 45.68 -10 45 C-6.535 44.505 -6.535 44.505 -3 44 C-3 44.66 -3 45.32 -3 46 C0.3 46 3.6 46 7 46 C7 31.81 7 17.62 7 3 C4.525 2.505 4.525 2.505 2 2 C2.16153564 2.57564697 2.32307129 3.15129395 2.48950195 3.74438477 C3.32868786 7.45229416 3.19047404 11.14969284 3.1875 14.9375 C3.18814453 15.77837158 3.18878906 16.61924316 3.18945312 17.4855957 C3.13077323 24.48117326 2.38099667 31.13200764 1 38 C-0.32 37.34 -1.64 36.68 -3 36 C-2.67515625 34.1128125 -2.67515625 34.1128125 -2.34375 32.1875 C-0.55152635 21.32979806 0.41512865 11.00859682 0 0 Z " fill="#9BD3D8" transform="translate(407,227)"/>
<path d="M0 0 C5.28 0 10.56 0 16 0 C16.33 14.52 16.66 29.04 17 44 C17.66 44.33 18.32 44.66 19 45 C19 45.66 19 46.32 19 47 C12.96496237 48.50875941 7.10261631 47.64186094 1 47 C0.8125 43.625 0.8125 43.625 1 40 C1.99 39.34 2.98 38.68 4 38 C4.72965366 35.43717258 4.72965366 35.43717258 5 33 C5.66 33 6.32 33 7 33 C7 25.74 7 18.48 7 11 C6.34 11 5.68 11 5 11 C5 10.34 5 9.68 5 9 C4.34 9 3.68 9 3 9 C2.01 6.03 1.02 3.06 0 0 Z M2 1 C2 1.66 2 2.32 2 3 C2.66 3 3.32 3 4 3 C4.66 5.31 5.32 7.62 6 10 C6.66 10 7.32 10 8 10 C7.91813841 13.64668507 7.80538972 17.29181587 7.6875 20.9375 C7.66494141 21.95908203 7.64238281 22.98066406 7.61914062 24.03320312 C7.34704168 31.77565482 6.35437126 38.4684431 2 45 C5.96 45 9.92 45 14 45 C14 30.48 14 15.96 14 1 C10.04 1 6.08 1 2 1 Z " fill="#89C7CB" transform="translate(371,228)"/>
<path d="M0 0 C0 0.33 0 0.66 0 1 C-21.96808622 5.06757134 -44.71717649 4.28543541 -66.95916748 4.19561768 C-70.37937484 4.1846905 -73.79954289 4.18515261 -77.21976471 4.18575573 C-80.54849352 4.18548307 -83.87719701 4.17998998 -87.20591736 4.17275429 C-88.77823192 4.16960316 -90.35054928 4.16760867 -91.92286682 4.16686058 C-99.67449684 4.15910811 -107.31088571 4.08324017 -115 3 C-115 2.67 -115 2.34 -115 2 C-106.51388672 1.86761233 -98.02774712 1.73711567 -89.54157066 1.60884857 C-85.59850037 1.54919425 -81.65544103 1.48895655 -77.71240234 1.42724609 C-73.14944085 1.35591626 -68.58644974 1.28675039 -64.0234375 1.21875 C-63.2788755 1.20749022 -62.53431351 1.19623043 -61.76718903 1.18462944 C-51.82580035 1.03633532 -41.88657948 0.93782426 -31.94418335 1.06787109 C-25.29041302 1.11971663 -18.76489016 0.51126157 -12.17349243 -0.37548828 C-7.87073496 -0.93104398 -4.23984822 -0.95933274 0 0 Z " fill="#9DD0D3" transform="translate(318,345)"/>
<path d="M0 0 C2.64 0 5.28 0 8 0 C8 16.17 8 32.34 8 49 C4.7 49 1.4 49 -2 49 C-2.66 48.34 -3.32 47.68 -4 47 C-2.515 46.505 -2.515 46.505 -1 46 C-0.67 35.11 -0.34 24.22 0 13 C-0.99 13 -1.98 13 -3 13 C-2.88490339 11.58249437 -2.75746342 10.16598831 -2.625 8.75 C-2.55539063 7.96109375 -2.48578125 7.1721875 -2.4140625 6.359375 C-1.98492887 3.914123 -1.21399362 2.15163097 0 0 Z M2 3 C1.34 4.98 0.68 6.96 0 9 C0.33 9.33 0.66 9.66 1 10 C1.08858646 12.73894085 1.11523479 15.4525327 1.09765625 18.19140625 C1.0962413 19.01124496 1.09482635 19.83108368 1.09336853 20.67576599 C1.08775289 23.30471382 1.07519779 25.93357773 1.0625 28.5625 C1.05748701 30.34049357 1.05292376 32.11848846 1.04882812 33.89648438 C1.03777839 38.26435545 1.02050331 42.63216348 1 47 C2.98 47 4.96 47 7 47 C7 32.48 7 17.96 7 3 C5.35 3 3.7 3 2 3 Z " fill="#B5E0E6" transform="translate(202,226)"/>
<path d="M0 0 C1.93681161 -0.08107583 3.8745934 -0.13922475 5.8125 -0.1875 C6.89144531 -0.22230469 7.97039062 -0.25710937 9.08203125 -0.29296875 C12 0 12 0 13.88671875 1.51171875 C14.25410156 2.00285156 14.62148437 2.49398437 15 3 C14.34 3 13.68 3 13 3 C13 16.53 13 30.06 13 44 C14.65 44 16.3 44 18 44 C13.60644538 46.19677731 11.02635052 47.20943127 6 47 C5.34 46.67 4.68 46.34 4 46 C3.98541748 44.90534424 3.97083496 43.81068848 3.95581055 42.68286133 C3.89771261 38.61043095 3.82048073 34.53854685 3.73754883 30.46655273 C3.70435346 28.70622645 3.67630476 26.94579512 3.65356445 25.18530273 C3.6199188 22.65042475 3.5675994 20.11650477 3.51171875 17.58203125 C3.50213387 16.40674614 3.50213387 16.40674614 3.49235535 15.2077179 C3.36777024 10.54767698 2.55273263 7.84926439 0 4 C0 2.68 0 1.36 0 0 Z M2 1 C2.31694824 2.14146484 2.63389648 3.28292969 2.96044922 4.45898438 C4.0592961 8.86792743 4.42998504 13.1284127 4.6328125 17.65625 C4.67437469 18.44398804 4.71593689 19.23172607 4.75875854 20.04333496 C4.88820733 22.52857883 5.00678935 25.01419889 5.125 27.5 C5.21151786 29.1979536 5.29875082 30.89587091 5.38671875 32.59375 C5.59940788 36.72879366 5.80236164 40.86421077 6 45 C7.65 45 9.3 45 11 45 C11 30.48 11 15.96 11 1 C8.03 1 5.06 1 2 1 Z " fill="#A8D2D8" transform="translate(155,228)"/>
<path d="M0 0 C0.99 0.33 1.98 0.66 3 1 C3.33 16.84 3.66 32.68 4 49 C2.35 48.67 0.7 48.34 -1 48 C-1.02526945 41.3247966 -1.04283268 34.64960543 -1.05493164 27.97436523 C-1.05997325 25.70157409 -1.06680637 23.4287862 -1.07543945 21.15600586 C-1.08751261 17.89696449 -1.09322987 14.63796583 -1.09765625 11.37890625 C-1.10281754 10.35599991 -1.10797882 9.33309357 -1.11329651 8.27919006 C-1.11337204 7.33829025 -1.11344757 6.39739044 -1.11352539 5.42797852 C-1.115746 4.59524918 -1.11796661 3.76251984 -1.12025452 2.90455627 C-1 1 -1 1 0 0 Z " fill="#7EC1C6" transform="translate(211,227)"/>
<path d="M0 0 C2.8203125 0.0234375 2.8203125 0.0234375 6.125 0.375 C7.22070312 0.48585937 8.31640625 0.59671875 9.4453125 0.7109375 C10.28835938 0.80632812 11.13140625 0.90171875 12 1 C12 1.66 12 2.32 12 3 C11.01 3 10.02 3 9 3 C9.01160156 4.08152344 9.02320313 5.16304687 9.03515625 6.27734375 C9.13120243 19.87238012 8.62532216 33.42086316 8 47 C7.67 47 7.34 47 7 47 C7 32.48 7 17.96 7 3 C5.35 3 3.7 3 2 3 C2 12.57 2 22.14 2 32 C1.34 31.67 0.68 31.34 0 31 C-1.14289156 25.52993412 -1.12083769 20.13150525 -1.0625 14.5625 C-1.05798828 13.73556641 -1.05347656 12.90863281 -1.04882812 12.05664062 C-1.03715811 10.03772854 -1.01922718 8.01885426 -1 6 C-1.66 5.67 -2.32 5.34 -3 5 C-2 2 -2 2 0 0 Z " fill="#B3D9DE" transform="translate(334,226)"/>
<path d="M0 0 C3.96 0.33 7.92 0.66 12 1 C12 15.52 12 30.04 12 45 C11.67 45 11.34 45 11 45 C11 30.81 11 16.62 11 2 C9.02 2 7.04 2 5 2 C5.16226074 2.50813232 5.32452148 3.01626465 5.49169922 3.53979492 C6.17432323 6.84373448 6.12992316 9.98956671 6.1328125 13.36328125 C6.13376923 14.07348923 6.13472595 14.7836972 6.13571167 15.51542664 C6.1363908 17.0157378 6.13455515 18.51605194 6.13037109 20.01635742 C6.12504286 22.29417661 6.13031279 24.57179648 6.13671875 26.84960938 C6.13605746 28.31250043 6.13477524 29.77539136 6.1328125 31.23828125 C6.13483673 31.91143875 6.13686096 32.58459625 6.13894653 33.27815247 C6.11777738 37.62489663 5.69754246 41.72296336 5 46 C4.67 46 4.34 46 4 46 C3.83121222 41.16218258 3.67078873 36.32418341 3.51782227 31.48583984 C3.46473449 29.84286193 3.40943522 28.19995382 3.35180664 26.55712891 C3.26895858 24.18407238 3.19429373 21.81087146 3.12109375 19.4375 C3.09405869 18.71320801 3.06702362 17.98891602 3.03916931 17.24267578 C2.89972929 12.38481034 3.29691217 7.81035172 4 3 C2.02 3.33 0.04 3.66 -2 4 C-1.34 2.68 -0.68 1.36 0 0 Z " fill="#D1E8EA" transform="translate(134,227)"/>
<path d="M0 0 C1.9375 0.375 1.9375 0.375 4 1 C4.33 1.66 4.66 2.32 5 3 C5.99 2.67 6.98 2.34 8 2 C9.99118241 6.97011673 10.24845695 11.12333135 10.125 16.375 C10.11597656 17.11105469 10.10695313 17.84710938 10.09765625 18.60546875 C10.07430144 20.4037888 10.03843836 22.20193911 10 24 C9.01 23.67 8.02 23.34 7 23 C6.0078125 20.70703125 6.0078125 20.70703125 5.125 17.8125 C3.45692841 12.84707761 1.63388786 9.73482919 -2 6 C-1.34 6 -0.68 6 0 6 C0 4.02 0 2.04 0 0 Z " fill="#75C2CC" transform="translate(298,224)"/>
<path d="M0 0 C4.38889325 0.66498383 7.9811485 2.18757677 12 4 C12 3.01 12 2.02 12 1 C17.75 0.875 17.75 0.875 20 2 C19.34309381 5.78239671 18.279869 9.21841526 16.9375 12.8125 C16.57527344 13.78832031 16.21304688 14.76414063 15.83984375 15.76953125 C15.56269531 16.50558594 15.28554687 17.24164063 15 18 C13.23537317 14.91190305 13 13.76687864 13 10 C12.195625 9.62875 12.195625 9.62875 11.375 9.25 C8.43575748 7.70303025 5.74245592 5.86985631 3 4 C2.01 4.495 2.01 4.495 1 5 C-1.125 4.0625 -1.125 4.0625 -3 3 C-2.01 2.67 -1.02 2.34 0 2 C0 1.34 0 0.68 0 0 Z " fill="#7FC3C8" transform="translate(112,225)"/>
<path d="M0 0 C2.3223428 2.8762349 3.86565842 5.63780422 5.25 9.0625 C5.60578125 9.91972656 5.9615625 10.77695312 6.328125 11.66015625 C7 14 7 14 6 17 C5.34 16.67 4.68 16.34 4 16 C4.33 15.34 4.66 14.68 5 14 C4.01 13.67 3.02 13.34 2 13 C1.96261719 13.69867188 1.92523438 14.39734375 1.88671875 15.1171875 C1.82097656 16.02726562 1.75523438 16.93734375 1.6875 17.875 C1.62949219 18.77992188 1.57148437 19.68484375 1.51171875 20.6171875 C1 23 1 23 -2 25 C-3.32 25 -4.64 25 -6 25 C-6.4125 23.96875 -6.825 22.9375 -7.25 21.875 C-8.78037529 18.28478308 -10.78442854 15.21615212 -13 12 C-13.69429379 10.6808418 -14.37530495 9.35350594 -15 8 C-14.01 7.67 -13.02 7.34 -12 7 C-10.66121428 9.1217363 -9.32884524 11.24705188 -8 13.375 C-7.6184375 13.97828125 -7.236875 14.5815625 -6.84375 15.203125 C-4 19.7734375 -4 19.7734375 -4 22 C-3.34 22 -2.68 22 -2 22 C-2 17.05 -2 12.1 -2 7 C-1.34 7 -0.68 7 0 7 C0 4.69 0 2.38 0 0 Z " fill="#89C7CC" transform="translate(92,251)"/>
<path d="M0 0 C0.99 0 1.98 0 3 0 C3 13.86 3 27.72 3 42 C1.515 42.495 1.515 42.495 0 43 C0 28.81 0 14.62 0 0 Z " fill="#7FC4CA" transform="translate(343,229)"/>
<path d="M0 0 C0.33 0.66 0.66 1.32 1 2 C-0.32 2.33 -1.64 2.66 -3 3 C-2.67 9.93 -2.34 16.86 -2 24 C-1.34 24 -0.68 24 0 24 C-0.33 24.99 -0.66 25.98 -1 27 C-1.21183708 28.55178929 -1.38619937 30.10888672 -1.53515625 31.66796875 C-1.66567383 33.00698242 -1.66567383 33.00698242 -1.79882812 34.37304688 C-1.9293457 35.76620117 -1.9293457 35.76620117 -2.0625 37.1875 C-2.15337891 38.12787109 -2.24425781 39.06824219 -2.33789062 40.03710938 C-2.56171283 42.3577922 -2.78229246 44.67873689 -3 47 C-3.33 47 -3.66 47 -4 47 C-4.95672661 42.18311427 -5.14601481 37.50237451 -5.1328125 32.609375 C-5.13376923 31.82355042 -5.13472595 31.03772583 -5.13571167 30.22808838 C-5.13638886 28.57751383 -5.13456691 26.92693655 -5.13037109 25.27636719 C-5.12498742 22.74408052 -5.13034638 20.21196891 -5.13671875 17.6796875 C-5.13605845 16.07291627 -5.13477828 14.46614516 -5.1328125 12.859375 C-5.13483673 12.10106384 -5.13686096 11.34275269 -5.13894653 10.5614624 C-5.11498043 5.22996085 -5.11498043 5.22996085 -4 3 C-6.31 3 -8.62 3 -11 3 C-11 2.34 -11 1.68 -11 1 C-5.555 0.505 -5.555 0.505 0 0 Z " fill="#A7D7DB" transform="translate(358,226)"/>
<path d="M0 0 C5.28 0 10.56 0 16 0 C15.67 13.86 15.34 27.72 15 42 C14.67 42 14.34 42 14 42 C13.83110201 37.44703108 13.670693 32.89386731 13.51782227 28.34033203 C13.46476292 26.79435369 13.40946664 25.24845031 13.35180664 23.70263672 C13.26887717 21.46858892 13.19424926 19.23438675 13.12109375 17 C13.09405869 16.31945557 13.06702362 15.63891113 13.03916931 14.93774414 C12.89389491 10.16607504 13.31727961 5.70778232 14 1 C10.04 1 6.08 1 2 1 C2 1.66 2 2.32 2 3 C2.66 3 3.32 3 4 3 C6 6 6 6 6 10 C6.66 10 7.32 10 8 10 C8 17.59 8 25.18 8 33 C7.67 33 7.34 33 7 33 C7 25.74 7 18.48 7 11 C6.34 11 5.68 11 5 11 C5 10.34 5 9.68 5 9 C4.34 9 3.68 9 3 9 C2.01 6.03 1.02 3.06 0 0 Z " fill="#ACD3D8" transform="translate(371,228)"/>
<path d="M0 0 C2.31 0.66 4.62 1.32 7 2 C7.33 3.32 7.66 4.64 8 6 C7.01 6.495 7.01 6.495 6 7 C6 6.01 6 5.02 6 4 C3.69 4 1.38 4 -1 4 C-0.5875 4.94875 -0.175 5.8975 0.25 6.875 C9 27.34669811 9 27.34669811 9 32 C8.01 31.67 7.02 31.34 6 31 C5.12109375 28.75 5.12109375 28.75 4.4375 26 C3.79850816 23.31542362 3.79850816 23.31542362 3 21 C2.34 20.67 1.68 20.34 1 20 C0.59270772 17.67843403 0.25561323 15.3431213 0 13 C-0.99 12.67 -1.98 12.34 -3 12 C-3.36923077 4.61538462 -3.36923077 4.61538462 -1.5 1.5 C-1.005 1.005 -0.51 0.51 0 0 Z " fill="#8EC9CD" transform="translate(175,225)"/>
<path d="M0 0 C6.72 0.72 6.72 0.72 8 2 C8.07319621 4.69654854 8.09242537 7.36691458 8.0625 10.0625 C8.05798828 10.82111328 8.05347656 11.57972656 8.04882812 12.36132812 C8.0370068 14.24091871 8.01907078 16.12046899 8 18 C5.90259164 14.85388747 5.74671781 14.08811922 5.8125 10.5 C5.81894531 9.7265625 5.82539063 8.953125 5.83203125 8.15625 C6 6 6 6 7 3 C5.02 3 3.04 3 1 3 C1 17.19 1 31.38 1 46 C0.67 46 0.34 46 0 46 C-0.74516644 34.95556878 -1.10666832 23.94580517 -1.125 12.875 C-1.12951172 11.71887207 -1.13402344 10.56274414 -1.13867188 9.37158203 C-1.13673828 8.29763184 -1.13480469 7.22368164 -1.1328125 6.1171875 C-1.13168457 5.15409668 -1.13055664 4.19100586 -1.12939453 3.19873047 C-1 1 -1 1 0 0 Z " fill="#B6DBDD" transform="translate(254,226)"/>
<path d="M0 0 C0.33 0.66 0.66 1.32 1 2 C1.66 2 2.32 2 3 2 C3 2.66 3 3.32 3 4 C2.2575 4.28875 1.515 4.5775 0.75 4.875 C-0.1575 5.24625 -1.065 5.6175 -2 6 C-2.6909375 6.25394531 -3.381875 6.50789062 -4.09375 6.76953125 C-6.18568645 7.85502842 -6.18568645 7.85502842 -6.828125 10.14453125 C-7.98662042 17.47094211 -8.21209425 24.58848426 -8 32 C-8.66 32 -9.32 32 -10 32 C-12.12281304 24.9013132 -11.79911781 16.82284966 -9 10 C-9 6.61976483 -9.87455622 4.16531063 -11 1 C-9.68 1.33 -8.36 1.66 -7 2 C-7 2.99 -7 3.98 -7 5 C-5.35 4.67 -3.7 4.34 -2 4 C-2 3.01 -2 2.02 -2 1 C-1.34 0.67 -0.68 0.34 0 0 Z " fill="#9FCFD6" transform="translate(281,227)"/>
<path d="M0 0 C0 0.99 0 1.98 0 3 C-4.64849515 5.3992233 -8.91086074 5.19957409 -14 5 C-14.33 5.66 -14.66 6.32 -15 7 C-17.76026777 7.61898709 -20.46027309 8.12674927 -23.25 8.5625 C-24.77610464 8.8134194 -26.30214792 9.06471228 -27.828125 9.31640625 C-28.55064453 9.43000488 -29.27316406 9.54360352 -30.01757812 9.66064453 C-31.66571114 9.94277568 -33.29767027 10.31747815 -34.921875 10.71484375 C-35.60765625 10.80894531 -36.2934375 10.90304688 -37 11 C-37.66 10.34 -38.32 9.68 -39 9 C-30.50831415 6.40612326 -21.96629279 4.22527604 -13.3125 2.25 C-12.34425293 2.02739502 -11.37600586 1.80479004 -10.37841797 1.57543945 C-9.46592285 1.37007568 -8.55342773 1.16471191 -7.61328125 0.953125 C-6.79641846 0.76911133 -5.97955566 0.58509766 -5.13793945 0.39550781 C-3 0 -3 0 0 0 Z " fill="#92C9CD" transform="translate(143,168)"/>
<path d="M0 0 C4.04745539 4.04745539 4.17175573 10.20716356 4.375 15.6875 C4.14408334 26.45908302 0.62959971 37.15797524 -7 45 C-7.99 45 -8.98 45 -10 45 C-9.67 44.01 -9.34 43.02 -9 42 C-8.01 42 -7.02 42 -6 42 C-5.505 39.03 -5.505 39.03 -5 36 C-4.34 36 -3.68 36 -3 36 C-2.34 33.36 -1.68 30.72 -1 28 C-0.34 28 0.32 28 1 28 C1.10731538 18.60394198 0.99263429 9.35912329 0 0 Z " fill="#9DCED2" transform="translate(487,238)"/>
<path d="M0 0 C8.91045588 0.36757215 16.9452081 0.97260405 25 5 C25.33 4.34 25.66 3.68 26 3 C26 3.66 26 4.32 26 5 C27.8253125 5.185625 27.8253125 5.185625 29.6875 5.375 C33.06479059 5.78891306 35.89756695 6.54573451 39 8 C39 8.66 39 9.32 39 10 C30.52343647 9.40861185 22.58924089 7.18276858 14.4375 4.9375 C13.03336913 4.55602905 11.6290733 4.17516476 10.22460938 3.79492188 C6.81447626 2.87026673 3.4066478 1.93742538 0 1 C0 0.67 0 0.34 0 0 Z " fill="#96D0D2" transform="translate(102,329)"/>
<path d="M0 0 C0.66 0 1.32 0 2 0 C3.35439668 2.70879335 3.06501451 5.00933268 3 8 C-5.05192211 9.19287735 -12.97593875 9.68927605 -21 8 C-20.67 7.01 -20.34 6.02 -20 5 C-18.97519531 5.05800781 -17.95039063 5.11601562 -16.89453125 5.17578125 C-15.53389989 5.22269957 -14.17321904 5.26819752 -12.8125 5.3125 C-12.13896484 5.35439453 -11.46542969 5.39628906 -10.77148438 5.43945312 C-6.70643134 5.53860076 -5.23520759 5.20696985 -2.13671875 2.48046875 C-1.43160156 1.66191406 -0.72648437 0.84335937 0 0 Z M-1 3 C-1.33 3.99 -1.66 4.98 -2 6 C-1.01 5.67 -0.02 5.34 1 5 C1 4.34 1 3.68 1 3 C0.34 3 -0.32 3 -1 3 Z " fill="#7FC5CD" transform="translate(436,267)"/>
<path d="M0 0 C0.91180399 3.08223586 1.07688776 5.75087187 1 8.95703125 C0.94144508 15.24436577 1.43285381 21.42973152 2 27.6875 C2.09539062 28.78255859 2.19078125 29.87761719 2.2890625 31.00585938 C2.52182365 33.67097457 2.7588633 36.33563186 3 39 C2.01 38.67 1.02 38.34 0 38 C-2.66464719 31.81434066 -2.30416632 24.47426392 -2.25 17.875 C-2.25773437 16.92496094 -2.26546875 15.97492188 -2.2734375 14.99609375 C-2.25848275 9.60490461 -1.77871618 5.09616301 0 0 Z " fill="#97D1D6" transform="translate(280,233)"/>
<path d="M0 0 C0.33 0 0.66 0 1 0 C1.07347656 1.80984375 1.07347656 1.80984375 1.1484375 3.65625 C1.22353532 5.27085306 1.29908003 6.88543539 1.375 8.5 C1.4059375 9.29148438 1.436875 10.08296875 1.46875 10.8984375 C1.84709354 18.59142282 3.2393137 25.16238854 7 32 C6.34 32.66 5.68 33.32 5 34 C1.875 33.625 1.875 33.625 -1 33 C-1.33 31.35 -1.66 29.7 -2 28 C-1.34 28.33 -0.68 28.66 0 29 C-0.0721875 28.42894531 -0.144375 27.85789062 -0.21875 27.26953125 C-1.26115245 18.16298766 -1.70565195 9.0426627 0 0 Z " fill="#A6D4D6" transform="translate(101,239)"/>
<path d="M0 0 C1.9375 0.5625 1.9375 0.5625 4 2 C4.75 5.625 4.75 5.625 5 9 C5.66 9 6.32 9 7 9 C8.4807848 11.9615696 8.35314037 14.83506295 8.5625 18.125 C8.64628906 19.40632813 8.73007813 20.68765625 8.81640625 22.0078125 C8.87699219 22.99523437 8.93757812 23.98265625 9 25 C6.65770866 22.16322493 5.44833944 19.79498314 4.5 16.25 C3.57734902 12.94505443 2.56961126 9.75544457 1.3125 6.5625 C0 3 0 3 0 0 Z " fill="#98CDD1" transform="translate(182,232)"/>
<path d="M0 0 C2.79338354 3.39769168 5.31354071 6.85994745 7.6875 10.5625 C8.28949219 11.49191406 8.89148438 12.42132813 9.51171875 13.37890625 C10.81267562 15.67009275 11.54644998 17.42988321 12 20 C11.34 20 10.68 20 10 20 C9.67 18.68 9.34 17.36 9 16 C7.68 15.67 6.36 15.34 5 15 C4.67 15.66 4.34 16.32 4 17 C4.33 15.35 4.66 13.7 5 12 C4.01 12.33 3.02 12.66 2 13 C2 12.01 2 11.02 2 10 C1.34 10 0.68 10 0 10 C-0.74926071 6.33694766 -1.2380014 3.57644848 0 0 Z " fill="#85C7CD" transform="translate(62,230)"/>
<path d="M0 0 C1.93681161 -0.08107583 3.8745934 -0.13922475 5.8125 -0.1875 C6.89144531 -0.22230469 7.97039062 -0.25710937 9.08203125 -0.29296875 C12 0 12 0 13.88671875 1.51171875 C14.25410156 2.00285156 14.62148437 2.49398437 15 3 C14.34 3 13.68 3 13 3 C13 11.25 13 19.5 13 28 C12.67 28 12.34 28 12 28 C11.3668316 18.98865693 10.8276216 10.04028922 11 1 C8.03 1 5.06 1 2 1 C2.66 1.99 3.32 2.98 4 4 C4.125 6.6875 4.125 6.6875 4 9 C3.01 8.34 2.02 7.68 1 7 C0.3125 3.375 0.3125 3.375 0 0 Z " fill="#84C9CD" transform="translate(155,228)"/>
<path d="M0 0 C5.05038352 1.45413519 9.17656611 3.66340484 13.625 6.375 C14.60726563 6.95507812 14.60726563 6.95507812 15.609375 7.546875 C19.1902918 9.70702319 22.17628638 11.8609478 25 15 C22.525 14.505 22.525 14.505 20 14 C20 13.34 20 12.68 20 12 C19.43410156 11.89042969 18.86820312 11.78085938 18.28515625 11.66796875 C17.55167969 11.50941406 16.81820313 11.35085937 16.0625 11.1875 C15.33160156 11.03667969 14.60070312 10.88585937 13.84765625 10.73046875 C13.23792969 10.48941406 12.62820313 10.24835938 12 10 C11.67 9.01 11.34 8.02 11 7 C8.45003743 6.0836072 5.89162888 5.53802414 3.25 4.94140625 C2.5075 4.63074219 1.765 4.32007813 1 4 C0.1875 1.90234375 0.1875 1.90234375 0 0 Z " fill="#97CBCE" transform="translate(437,194)"/>
<path d="M0 0 C-0.33 0.66 -0.66 1.32 -1 2 C-9.42559867 4.75452264 -20.37527015 6.12031251 -29 4 C-29 3.67 -29 3.34 -29 3 C-24.91880031 2.29940894 -20.8347923 1.6168041 -16.75 0.9375 C-15.59113281 0.73833984 -14.43226563 0.53917969 -13.23828125 0.33398438 C-12.12324219 0.15029297 -11.00820312 -0.03339844 -9.859375 -0.22265625 C-8.83295898 -0.39547119 -7.80654297 -0.56828613 -6.74902344 -0.74633789 C-4.14929692 -0.98622385 -2.45153733 -0.82316264 0 0 Z " fill="#85C5C9" transform="translate(174,164)"/>
<path d="M0 0 C0.99 0.33 1.98 0.66 3 1 C3 3.64 3 6.28 3 9 C2.34 8.67 1.68 8.34 1 8 C-0.85131483 11.92857754 -1.22004943 14.98775112 -1.125 19.3125 C-1.10695313 20.38113281 -1.08890625 21.44976562 -1.0703125 22.55078125 C-1.04710938 23.35902344 -1.02390625 24.16726563 -1 25 C-1.33 25 -1.66 25 -2 25 C-2 21.37 -2 17.74 -2 14 C-2.99 13.67 -3.98 13.34 -5 13 C-5.33 12.01 -5.66 11.02 -6 10 C-4.68 10.33 -3.36 10.66 -2 11 C-2 8.03 -2 5.06 -2 2 C-1.34 2 -0.68 2 0 2 C0 1.34 0 0.68 0 0 Z " fill="#AADADD" transform="translate(92,246)"/>
<path d="M0 0 C6.95023264 0.64653327 13.38177303 2.86027248 20 5 C19.67 5.66 19.34 6.32 19 7 C12.11658833 6.41873413 6.15756068 5.3156096 0 2 C0 1.34 0 0.68 0 0 Z " fill="#88C6CB" transform="translate(384,175)"/>
<path d="M0 0 C2.57069617 3.85604425 2.35065056 7.12746343 2.4140625 11.60546875 C2.43342865 12.44467361 2.4527948 13.28387848 2.4727478 14.14851379 C2.53251213 16.82807258 2.57891612 19.5076744 2.625 22.1875 C2.6631827 24.00457599 2.70223461 25.82163394 2.7421875 27.63867188 C2.83821103 32.09230132 2.92225359 36.54601551 3 41 C1.68 40.67 0.36 40.34 -1 40 C-0.67 39.34 -0.34 38.68 0 38 C0.09758515 35.86896124 0.13077165 33.73483344 0.1328125 31.6015625 C0.13410156 30.31765625 0.13539063 29.03375 0.13671875 27.7109375 C0.13462402 27.04030273 0.1325293 26.36966797 0.13037109 25.67871094 C0.12503896 23.63989759 0.13031051 21.60130632 0.13671875 19.5625 C0.13478516 17.63277344 0.13478516 17.63277344 0.1328125 15.6640625 C0.13168457 14.48279785 0.13055664 13.3015332 0.12939453 12.08447266 C0.02107643 9.50241426 -0.34691137 7.4688261 -1 5 C-0.5625 2.25 -0.5625 2.25 0 0 Z " fill="#7FC5CC" transform="translate(157,234)"/>
<path d="M0 0 C0.7109375 1.75 0.7109375 1.75 1 4 C-0.3984375 6 -0.3984375 6 -2.375 8 C-4.94782079 10.6240722 -6.42541629 12.32266427 -7 16 C-7.66 16 -8.32 16 -9 16 C-9 16.99 -9 17.98 -9 19 C-9.66 19 -10.32 19 -11 19 C-11 20.32 -11 21.64 -11 23 C-11.66 23 -12.32 23 -13 23 C-11.19082182 16.64581322 -8.73107027 11.44268337 -5 6 C-4.34 5.01 -3.68 4.02 -3 3 C-2.34 3 -1.68 3 -1 3 C-0.67 2.01 -0.34 1.02 0 0 Z " fill="#A1CFD2" transform="translate(23,220)"/>
<path d="M0 0 C3.45831586 -0.02894547 6.91660072 -0.04678 10.375 -0.0625 C11.35984375 -0.07087891 12.3446875 -0.07925781 13.359375 -0.08789062 C14.77089844 -0.09272461 14.77089844 -0.09272461 16.2109375 -0.09765625 C17.51490479 -0.10551147 17.51490479 -0.10551147 18.84521484 -0.11352539 C21 0 21 0 23 1 C23 1.66 23 2.32 23 3 C25.64 3 28.28 3 31 3 C31 3.33 31 3.66 31 4 C22.85580522 4.28576122 15.04774112 3.18045025 7 2 C5.67977025 1.81062016 4.35946073 1.62179531 3.0390625 1.43359375 C2.03617188 1.29050781 1.03328125 1.14742188 0 1 C0 0.67 0 0.34 0 0 Z " fill="#A9D6DC" transform="translate(165,343)"/>
<path d="M0 0 C-3.51908195 1.95309048 -7.13907634 3.02071039 -11 4.125 C-12.8253125 4.65480469 -12.8253125 4.65480469 -14.6875 5.1953125 C-18 6 -18 6 -22 6 C-22 5.34 -22 4.68 -22 4 C-18.535 3.505 -18.535 3.505 -15 3 C-15 2.34 -15 1.68 -15 1 C-13.44033408 0.63355422 -11.87707349 0.28239138 -10.3125 -0.0625 C-9.44238281 -0.25972656 -8.57226562 -0.45695312 -7.67578125 -0.66015625 C-4.83998724 -1.02032279 -2.75210018 -0.70909969 0 0 Z " fill="#95CBCF" transform="translate(401,328)"/>
<path d="M0 0 C5.53710844 4.31894458 9.61621268 8.80258732 13 15 C13 15.66 13 16.32 13 17 C12.01 16.67 11.02 16.34 10 16 C9.690625 15.360625 9.38125 14.72125 9.0625 14.0625 C8.17518809 11.84162796 8.17518809 11.84162796 6 11 C3.44971017 9.72485508 3.06918289 8.59658703 2 6 C1.62875 5.29875 1.2575 4.5975 0.875 3.875 C0 2 0 2 0 0 Z " fill="#97CCCF" transform="translate(472,217)"/>
<path d="M0 0 C3.47368006 5.21052009 3.45994636 11.5748283 2.3125 17.625 C1 20 1 20 -1.125 20.875 C-1.74375 20.91625 -2.3625 20.9575 -3 21 C-2.67 20.113125 -2.34 19.22625 -2 18.3125 C-0.57960344 13.49507109 -0.89698276 8.67170176 -1.02734375 3.6953125 C-1 1 -1 1 0 0 Z " fill="#9ED3D7" transform="translate(128,242)"/>
<path d="M0 0 C0.66 0.33 1.32 0.66 2 1 C1.690625 2.0725 1.38125 3.145 1.0625 4.25 C0.33187904 6.82866222 -0.37482904 9.39512102 -1 12 C-2.98 12 -4.96 12 -7 12 C-7.33 10.68 -7.66 9.36 -8 8 C-6.68 8 -5.36 8 -4 8 C-3.71125 7.4225 -3.4225 6.845 -3.125 6.25 C-2.08333333 4.16666667 -1.04166667 2.08333333 0 0 Z " fill="#86C7D0" transform="translate(296,264)"/>
<path d="M0 0 C0.99 0 1.98 0 3 0 C3 0.66 3 1.32 3 2 C3.99 1.67 4.98 1.34 6 1 C6 1.66 6 2.32 6 3 C-0.875 6 -0.875 6 -2 6 C-2.33 11.28 -2.66 16.56 -3 22 C-3.33 22 -3.66 22 -4 22 C-4 15.73 -4 9.46 -4 3 C-2.68 2.67 -1.36 2.34 0 2 C0 1.34 0 0.68 0 0 Z " fill="#81C5CD" transform="translate(359,226)"/>
<path d="M0 0 C0.66 0 1.32 0 2 0 C3.59412284 3.18824568 3.10174735 6.62896662 3.0625 10.125 C3.05798828 10.87910156 3.05347656 11.63320313 3.04882812 12.41015625 C3.03703499 14.27347127 3.01909942 16.13674555 3 18 C2.67 18 2.34 18 2 18 C1.67 14.04 1.34 10.08 1 6 C0.34 6 -0.32 6 -1 6 C-1.33 7.32 -1.66 8.64 -2 10 C-2.66 9.67 -3.32 9.34 -4 9 C-2.68 6.03 -1.36 3.06 0 0 Z " fill="#ACD3D7" transform="translate(306,255)"/>
<path d="M0 0 C1.32 0 2.64 0 4 0 C3.67 1.32 3.34 2.64 3 4 C2.34 4 1.68 4 1 4 C0.67 5.98 0.34 7.96 0 10 C0.66 10 1.32 10 2 10 C1.67 11.65 1.34 13.3 1 15 C-0.76462683 11.91190305 -1 10.76687864 -1 7 C-1.9590625 6.566875 -1.9590625 6.566875 -2.9375 6.125 C-5 5 -5 5 -6 3 C-4.35 3 -2.7 3 -1 3 C-0.67 2.01 -0.34 1.02 0 0 Z " fill="#A8D2DD" transform="translate(126,228)"/>
<path d="M0 0 C0 0.99 0 1.98 0 3 C-0.78375 3.0825 -1.5675 3.165 -2.375 3.25 C-5.14749104 3.72806339 -5.14749104 3.72806339 -6.3125 6.0625 C-6.539375 6.701875 -6.76625 7.34125 -7 8 C-7.99 8 -8.98 8 -10 8 C-10.226875 8.639375 -10.45375 9.27875 -10.6875 9.9375 C-12 12 -12 12 -14.625 12.75 C-15.40875 12.8325 -16.1925 12.915 -17 13 C-14.16881693 9.1691812 -11.24396468 6.45626044 -7.375 3.6875 C-6.41335937 2.99011719 -5.45171875 2.29273438 -4.4609375 1.57421875 C-2 0 -2 0 0 0 Z " fill="#A4CFD2" transform="translate(43,205)"/>
<path d="M0 0 C-1.89065812 1.4654862 -3.78701997 2.92234703 -5.6875 4.375 C-6.48317383 4.99375 -6.48317383 4.99375 -7.29492188 5.625 C-10.40498266 7.99093582 -13.29378434 9.74855056 -17 11 C-17 10.01 -17 9.02 -17 8 C-16.01 8 -15.02 8 -14 8 C-14 7.34 -14 6.68 -14 6 C-13.01 5.67 -12.02 5.34 -11 5 C-10.34 4.34 -9.68 3.68 -9 3 C-8.34 3.33 -7.68 3.66 -7 4 C-6.87625 3.360625 -6.7525 2.72125 -6.625 2.0625 C-6.41875 1.381875 -6.2125 0.70125 -6 0 C-3.50907189 -1.24546405 -2.58919267 -0.7767578 0 0 Z " fill="#9ECED1" transform="translate(471,293)"/>
<path d="M0 0 C7.75 -0.125 7.75 -0.125 10 1 C10 1.66 10 2.32 10 3 C10.5775 3.12375 11.155 3.2475 11.75 3.375 C14.02335767 4.00648824 15.9253529 4.88858191 18 6 C14.94255252 7.35114472 13.77959635 6.9224598 10.546875 5.78515625 C9.27604557 5.22254947 8.01048782 4.64790949 6.75 4.0625 C6.1003125 3.77181641 5.450625 3.48113281 4.78125 3.18164062 C3.18284785 2.46471025 1.59076946 1.73371051 0 1 C0 0.67 0 0.34 0 0 Z " fill="#93CCCE" transform="translate(65,315)"/>
<path d="M0 0 C1.32 0.33 2.64 0.66 4 1 C5.06351675 4.38391693 5.21442982 5.5804634 3.5625 8.8125 C3.046875 9.534375 2.53125 10.25625 2 11 C0.62437146 9.71034824 -0.70766393 8.37310707 -2 7 C-2 6.34 -2 5.68 -2 5 C-1.01 4.67 -0.02 4.34 1 4 C0.34 4 -0.32 4 -1 4 C-0.67 2.68 -0.34 1.36 0 0 Z " fill="#89CACF" transform="translate(363,246)"/>
<path d="M0 0 C15.74487472 -0.3690205 15.74487472 -0.3690205 23 2 C23 2.66 23 3.32 23 4 C15.21191437 3.48351265 7.65074958 2.55123466 0 1 C0 0.67 0 0.34 0 0 Z " fill="#A4D8D8" transform="translate(141,339)"/>
<path d="M0 0 C0.721875 0.185625 1.44375 0.37125 2.1875 0.5625 C5.14838426 1.023082 7.10138695 0.61023433 10 0 C10.99 0.33 11.98 0.66 13 1 C10.46208224 3.53791776 8.4612082 3.86805753 5 4.75 C3.9275 5.03359375 2.855 5.3171875 1.75 5.609375 C0.8425 5.73828125 -0.065 5.8671875 -1 6 C-1.66 5.34 -2.32 4.68 -3 4 C-1.68 4 -0.36 4 1 4 C0.67 2.68 0.34 1.36 0 0 Z " fill="#94CBD0" transform="translate(402,322)"/>
<path d="M0 0 C0.2475 0.639375 0.495 1.27875 0.75 1.9375 C1.81562433 4.18741541 1.81562433 4.18741541 4.125 4.75 C4.74375 4.8325 5.3625 4.915 6 5 C5 7 5 7 2 9 C-0.6875 9.125 -0.6875 9.125 -3 9 C-3 7.02 -3 5.04 -3 3 C-2.34 3 -1.68 3 -1 3 C-0.67 2.01 -0.34 1.02 0 0 Z " fill="#90CBD1" transform="translate(119,264)"/>
<path d="M0 0 C0.99 0 1.98 0 3 0 C3.33 2.97 3.66 5.94 4 9 C1.125 9.125 1.125 9.125 -2 9 C-2.66 8.34 -3.32 7.68 -4 7 C-2.68 4.69 -1.36 2.38 0 0 Z " fill="#87C9D1" transform="translate(60,267)"/>
<path d="M0 0 C0.99 0 1.98 0 3 0 C3.33 2.97 3.66 5.94 4 9 C1.1875 9.25 1.1875 9.25 -2 9 C-3.875 7 -3.875 7 -5 5 C-4.01 5 -3.02 5 -2 5 C-1.34 3.35 -0.68 1.7 0 0 Z M1 2 C-0.03013277 3.64821244 -1.03114628 5.31503702 -2 7 C-0.68 7 0.64 7 2 7 C2 5.35 2 3.7 2 2 C1.67 2 1.34 2 1 2 Z " fill="#8AC5CB" transform="translate(242,266)"/>
<path d="M0 0 C2 1 2 1 2.6328125 2.6875 C4.42324768 11.09970341 4.17859032 19.44750819 4 28 C3.67 28 3.34 28 3 28 C2.93941406 27.07316406 2.87882812 26.14632813 2.81640625 25.19140625 C2.73261719 23.99386719 2.64882812 22.79632813 2.5625 21.5625 C2.48128906 20.36753906 2.40007812 19.17257813 2.31640625 17.94140625 C2.32343886 15.11429756 2.32343886 15.11429756 1 14 C0.76472227 11.65012738 0.58613583 9.29443961 0.4375 6.9375 C0.35371094 5.64714844 0.26992187 4.35679687 0.18359375 3.02734375 C0.12300781 2.02832031 0.06242187 1.02929688 0 0 Z " fill="#C6E2E2" transform="translate(118,232)"/>
<path d="M0 0 C0.66 0.99 1.32 1.98 2 3 C1.34 3 0.68 3 0 3 C0 3.99 0 4.98 0 6 C-0.99 6.495 -0.99 6.495 -2 7 C-2.99 8.485 -2.99 8.485 -4 10 C-3.67 8.02 -3.34 6.04 -3 4 C-4.65 5.65 -6.3 7.3 -8 9 C-8.33 7.68 -8.66 6.36 -9 5 C-8.01 4.67 -7.02 4.34 -6 4 C-6 3.34 -6 2.68 -6 2 C-4.02 1.34 -2.04 0.68 0 0 Z " fill="#9ED4D7" transform="translate(106,228)"/>
<path d="M0 0 C0.66 0 1.32 0 2 0 C2.99 1.98 3.98 3.96 5 6 C4.34 6.66 3.68 7.32 3 8 C-0.125 7.625 -0.125 7.625 -3 7 C-3.33 5.35 -3.66 3.7 -4 2 C-2.515 2.99 -2.515 2.99 -1 4 C-0.67 2.68 -0.34 1.36 0 0 Z " fill="#85C4CE" transform="translate(103,265)"/>
<path d="M0 0 C0.66 0.33 1.32 0.66 2 1 C0.25 8.75 0.25 8.75 -2 11 C-0.02 11 1.96 11 4 11 C3.67 11.66 3.34 12.32 3 13 C0.67843403 13.40729228 -1.6568787 13.74438677 -4 14 C-4.1875 10.625 -4.1875 10.625 -4 7 C-3.01 6.34 -2.02 5.68 -1 5 C-0.27034634 2.43717258 -0.27034634 2.43717258 0 0 Z " fill="#9CD1D4" transform="translate(376,261)"/>
<path d="M0 0 C3.74123976 4.2954975 6.34151874 8.99900452 9 14 C6.40923555 13.63067826 5.28447602 13.34341442 3.5859375 11.29296875 C3.18632813 10.59816406 2.78671875 9.90335937 2.375 9.1875 C1.97023438 8.50042969 1.56546875 7.81335938 1.1484375 7.10546875 C0.05008036 5.09181399 -0.9909815 3.05969373 -2 1 C-1.34 0.67 -0.68 0.34 0 0 Z " fill="#94CDD0" transform="translate(79,258)"/>
<path d="M0 0 C0.99 0 1.98 0 3 0 C4.4606285 2.64738916 5 3.89448334 5 7 C5.99 7.33 6.98 7.66 8 8 C8.5625 9.9375 8.5625 9.9375 9 12 C9.66 12.66 10.32 13.32 11 14 C10.01 14 9.02 14 8 14 C6.2109375 11.953125 6.2109375 11.953125 4.375 9.25 C3.76398437 8.36828125 3.15296875 7.4865625 2.5234375 6.578125 C1.17359739 4.29378021 0.44744063 2.58789988 0 0 Z " fill="#9ACCD1" transform="translate(12,270)"/>
<path d="M0 0 C2.875 -0.125 2.875 -0.125 6 0 C6.66 0.66 7.32 1.32 8 2 C3.71 3.65 -0.58 5.3 -5 7 C-5 6.01 -5 5.02 -5 4 C-4.01 4 -3.02 4 -2 4 C-1.34 2.68 -0.68 1.36 0 0 Z " fill="#96CCD2" transform="translate(427,314)"/>
<path d="M0 0 C1.32 0.33 2.64 0.66 4 1 C4.125 5.75 4.125 5.75 3 8 C0.69 7.67 -1.62 7.34 -4 7 C-3.34 5.68 -2.68 4.36 -2 3 C-1.34 3 -0.68 3 0 3 C0 2.01 0 1.02 0 0 Z M0.4375 3.5 C-0.036875 3.995 -0.51125 4.49 -1 5 C-0.01 5.33 0.98 5.66 2 6 C2.33 4.68 2.66 3.36 3 2 C1.75923698 1.88457803 1.75923698 1.88457803 0.4375 3.5 Z " fill="#93CCD5" transform="translate(230,246)"/>
<path d="M0 0 C-1.3509159 2.7018318 -3.23591686 3.28373434 -5.9453125 4.40234375 C-9.35185513 5.39322022 -12.47262309 5.18565142 -16 5 C-13.13879225 3.09252817 -10.64745007 1.99646294 -7.4375 0.8125 C-6.46683594 0.44769531 -5.49617188 0.08289063 -4.49609375 -0.29296875 C-2 -1 -2 -1 0 0 Z " fill="#A6CED4" transform="translate(99,180)"/>
<path d="M0 0 C11.385 1.485 11.385 1.485 23 3 C23 3.33 23 3.66 23 4 C14.64259099 4.32098157 7.77729519 4.21819111 0 1 C0 0.67 0 0.34 0 0 Z " fill="#A6CFD4" transform="translate(326,163)"/>
<path d="M0 0 C4.26649636 0 5.63316085 0.56839395 9 3 C9 3.66 9 4.32 9 5 C9.66 5 10.32 5 11 5 C11 5.99 11 6.98 11 8 C6.40378078 6.5129879 3.53027653 4.20187872 0 1 C0 0.67 0 0.34 0 0 Z " fill="#9BD0D3" transform="translate(31,294)"/>
<path d="M0 0 C2.97 0 5.94 0 9 0 C9 0.66 9 1.32 9 2 C10.65 2.33 12.3 2.66 14 3 C14 3.66 14 4.32 14 5 C8.94744036 4.36843005 4.70406799 2.86540627 0 1 C0 0.67 0 0.34 0 0 Z " fill="#9ED0D3" transform="translate(82,322)"/>
<path d="M0 0 C3.00610306 0.98238662 6.00429568 1.9863781 9 3 C9.99 3.33 10.98 3.66 12 4 C12.66 4.33 13.32 4.66 14 5 C14.33 5.99 14.66 6.98 15 8 C9.52067211 6.45454854 4.88570819 3.84456788 0 1 C0 0.67 0 0.34 0 0 Z " fill="#A0D3D5" transform="translate(50,307)"/>
<path d="M0 0 C1.35439668 2.70879335 1.06501451 5.00933268 1 8 C-0.32 7.67 -1.64 7.34 -3 7 C-2.34 5.68 -1.68 4.36 -1 3 C-1.45375 3.495 -1.9075 3.99 -2.375 4.5 C-4 6 -4 6 -6 6 C-3.84615385 0 -3.84615385 0 0 0 Z " fill="#93C9D0" transform="translate(438,267)"/>
<path d="M0 0 C2.64 0 5.28 0 8 0 C8 0.66 8 1.32 8 2 C6.02 2 4.04 2 2 2 C2 2.66 2 3.32 2 4 C1.34 4 0.68 4 0 4 C-0.33 5.65 -0.66 7.3 -1 9 C-1.33 9 -1.66 9 -2 9 C-1.125 2.25 -1.125 2.25 0 0 Z " fill="#86C4C9" transform="translate(202,226)"/>
<path d="M0 0 C2.8125 0.125 2.8125 0.125 6 1 C7.9375 3.875 7.9375 3.875 9 7 C8.67 7.99 8.34 8.98 8 10 C5.33333333 6.66666667 2.66666667 3.33333333 0 0 Z " fill="#98CFD5" transform="translate(296,230)"/>
<path d="M0 0 C4.75 0.75 4.75 0.75 7 3 C7 3.99 7 4.98 7 6 C6.38125 5.649375 5.7625 5.29875 5.125 4.9375 C4.073125 4.4734375 4.073125 4.4734375 3 4 C2.01 4.495 2.01 4.495 1 5 C-1.125 4.0625 -1.125 4.0625 -3 3 C-2.01 2.67 -1.02 2.34 0 2 C0 1.34 0 0.68 0 0 Z " fill="#86CCD2" transform="translate(112,225)"/>
<path d="M0 0 C2.64 0 5.28 0 8 0 C8.33 1.32 8.66 2.64 9 4 C8.01 4.495 8.01 4.495 7 5 C7 4.34 7 3.68 7 3 C4.36 3 1.72 3 -1 3 C-0.67 2.01 -0.34 1.02 0 0 Z " fill="#9ACAD1" transform="translate(63,226)"/>
<path d="M0 0 C0.66 0.99 1.32 1.98 2 3 C1.24451463 5.8475987 0.31613642 8.36772716 -1 11 C-1.66 11 -2.32 11 -3 11 C-3 8.36 -3 5.72 -3 3 C-2.34 3 -1.68 3 -1 3 C-0.67 2.01 -0.34 1.02 0 0 Z " fill="#8DCDD1" transform="translate(194,254)"/>
<path d="M0 0 C3.63 0 7.26 0 11 0 C11 0.33 11 0.66 11 1 C8.03 1 5.06 1 2 1 C2.66 1.99 3.32 2.98 4 4 C4.125 6.6875 4.125 6.6875 4 9 C3.01 8.34 2.02 7.68 1 7 C0.3125 3.375 0.3125 3.375 0 0 Z " fill="#A8D4D7" transform="translate(155,228)"/>
<path d="M0 0 C0.33 0.66 0.66 1.32 1 2 C0.01 2.495 0.01 2.495 -1 3 C-1.99 4.485 -1.99 4.485 -3 6 C-4.9453125 6.29296875 -4.9453125 6.29296875 -7.125 6.1875 C-8.40375 6.125625 -9.6825 6.06375 -11 6 C-7.58983503 3.13546142 -4.09305456 1.65296434 0 0 Z " fill="#9DCFD4" transform="translate(63,193)"/>
<path d="M0 0 C1.62723299 0.45034123 3.25173664 0.91055354 4.875 1.375 C5.77992188 1.63023437 6.68484375 1.88546875 7.6171875 2.1484375 C10 3 10 3 12 5 C4.66666667 5.36666667 4.66666667 5.36666667 1.5 3.625 C0 2 0 2 0 0 Z " fill="#9DCED1" transform="translate(406,181)"/>
<path d="M0 0 C0.309375 0.639375 0.61875 1.27875 0.9375 1.9375 C1.8345163 3.93610821 1.8345163 3.93610821 3 5 C3.66 4.34 4.32 3.68 5 3 C5.125 7.75 5.125 7.75 4 10 C3.01 10 2.02 10 1 10 C0.690625 9.21625 0.38125 8.4325 0.0625 7.625 C-0.92875038 5.07669872 -0.92875038 5.07669872 -2 3 C-1.34 3 -0.68 3 0 3 C0 2.01 0 1.02 0 0 Z " fill="#91D2D9" transform="translate(186,262)"/>
<path d="M0 0 C0.66 0.33 1.32 0.66 2 1 C1.67 2.32 1.34 3.64 1 5 C1.99 5 2.98 5 4 5 C3.67 5.99 3.34 6.98 3 8 C0.9375 8.6875 0.9375 8.6875 -1 9 C-1.625 6.1875 -1.625 6.1875 -2 3 C-1.34 2.01 -0.68 1.02 0 0 Z " fill="#82C5CD" transform="translate(443,262)"/>
<path d="M0 0 C0 0.66 0 1.32 0 2 C0.66 2.33 1.32 2.66 2 3 C-1.3 3.33 -4.6 3.66 -8 4 C-8 3.01 -8 2.02 -8 1 C-2.25 0 -2.25 0 0 0 Z " fill="#8BC9CF" transform="translate(147,272)"/>
<path d="M0 0 C0.99 0.33 1.98 0.66 3 1 C3 3.64 3 6.28 3 9 C2.67 8.34 2.34 7.68 2 7 C0.68 7.33 -0.64 7.66 -2 8 C-1.34 5.36 -0.68 2.72 0 0 Z " fill="#7EC5CE" transform="translate(436,260)"/>
<path d="M0 0 C0.66 0 1.32 0 2 0 C2 4.29 2 8.58 2 13 C1.34 12.67 0.68 12.34 0 12 C-0.90949326 7.70057734 -1.15926382 4.25063401 0 0 Z " fill="#A5D6D9" transform="translate(334,245)"/>
<path d="M0 0 C-0.33 1.65 -0.66 3.3 -1 5 C-1.556875 4.814375 -2.11375 4.62875 -2.6875 4.4375 C-5.399133 3.92448835 -7.34371039 4.3359276 -10 5 C-7.89591568 0.79183137 -4.43462228 0 0 0 Z " fill="#80C4CC" transform="translate(111,225)"/>
<path d="M0 0 C0.99386719 0.00902344 1.98773438 0.01804687 3.01171875 0.02734375 C4.15060547 0.04474609 4.15060547 0.04474609 5.3125 0.0625 C5.3125 0.3925 5.3125 0.7225 5.3125 1.0625 C0.23773206 2.32555335 -4.41546354 3.33286084 -9.6875 3.0625 C-7.75082354 -0.81085293 -3.83275078 -0.04509119 0 0 Z " fill="#9BD1D4" transform="translate(361.6875,336.9375)"/>
<path d="M0 0 C1.65 1.65 3.3 3.3 5 5 C4.67 5.66 4.34 6.32 4 7 C2.35 6.67 0.7 6.34 -1 6 C-1.625 4.125 -1.625 4.125 -2 2 C-1.34 1.34 -0.68 0.68 0 0 Z " fill="#8BCCD3" transform="translate(275,264)"/>
<path d="M0 0 C-0.99 0.495 -0.99 0.495 -2 1 C-2 1.66 -2 2.32 -2 3 C-3.98 3.33 -5.96 3.66 -8 4 C-8.33 2.68 -8.66 1.36 -9 0 C-3.375 -1.125 -3.375 -1.125 0 0 Z " fill="#82C7CF" transform="translate(64,227)"/>
<path d="M0 0 C3.96 0.33 7.92 0.66 12 1 C12 1.33 12 1.66 12 2 C7.38 2.66 2.76 3.32 -2 4 C-1.34 2.68 -0.68 1.36 0 0 Z " fill="#92CAD0" transform="translate(134,227)"/>
<path d="M0 0 C-2.88628401 1.57554035 -5.53342384 2.46276373 -8.75 3.125 C-9.54921875 3.29257812 -10.3484375 3.46015625 -11.171875 3.6328125 C-11.77515625 3.75398438 -12.3784375 3.87515625 -13 4 C-11.68 3.34 -10.36 2.68 -9 2 C-9 1.34 -9 0.68 -9 0 C-5.67465243 -1.10844919 -3.37817425 -0.84454356 0 0 Z " fill="#ACD4D9" transform="translate(401,328)"/>
<path d="M0 0 C1.32 0 2.64 0 4 0 C4 0.66 4 1.32 4 2 C4.639375 2.2475 5.27875 2.495 5.9375 2.75 C8 4 8 4 8.75 6.125 C8.87375 7.053125 8.87375 7.053125 9 8 C6.5 6.625 6.5 6.625 4 5 C4 4.34 4 3.68 4 3 C3.34 3 2.68 3 2 3 C2 2.34 2 1.68 2 1 C1.34 0.67 0.68 0.34 0 0 Z " fill="#A1CDD3" transform="translate(22,286)"/>
<path d="M0 0 C1.96301592 3.50538557 2.95902388 7.13351728 4 11 C3.01 10.67 2.02 10.34 1 10 C-1.28070175 3.84210526 -1.28070175 3.84210526 0 0 Z " fill="#9ACFD2" transform="translate(180,246)"/>
<path d="M0 0 C4.29 0.33 8.58 0.66 13 1 C9.02033543 2.98983228 8.32324868 3.22400716 4.25 2.625 C3.45078125 2.51414063 2.6515625 2.40328125 1.828125 2.2890625 C1.22484375 2.19367188 0.6215625 2.09828125 0 2 C0 1.34 0 0.68 0 0 Z " fill="#ABD5DA" transform="translate(289,159)"/>
<path d="M0 0 C0 0.66 0 1.32 0 2 C-1.32 1.67 -2.64 1.34 -4 1 C-4 1.66 -4 2.32 -4 3 C-2.68 3.33 -1.36 3.66 0 4 C-2.97 4 -5.94 4 -9 4 C-8.34 3.67 -7.68 3.34 -7 3 C-7 2.34 -7 1.68 -7 1 C-4.53721199 -0.231394 -2.7204945 -0.07159196 0 0 Z " fill="#87CAD0" transform="translate(404,271)"/>
<path d="M0 0 C0.99 0 1.98 0 3 0 C3 2.64 3 5.28 3 8 C0.37613513 4.93882432 0 4.26826873 0 0 Z M0 7 C0.99 7.495 0.99 7.495 2 8 C1.67 8.66 1.34 9.32 1 10 C0.67 9.01 0.34 8.02 0 7 Z " fill="#67BCC4" transform="translate(169,227)"/>
<path d="M0 0 C1.32 0 2.64 0 4 0 C4 2.31 4 4.62 4 7 C3.01 6.67 2.02 6.34 1 6 C0.67 4.02 0.34 2.04 0 0 Z " fill="#AED3D4" transform="translate(304,241)"/>
<path d="M0 0 C0.33 1.32 0.66 2.64 1 4 C0.34 4 -0.32 4 -1 4 C-1 4.99 -1 5.98 -1 7 C-1.66 7 -2.32 7 -3 7 C-3 8.32 -3 9.64 -3 11 C-3.66 11 -4.32 11 -5 11 C-4.54917531 9.53932801 -4.08906463 8.08151968 -3.625 6.625 C-3.36976562 5.81289062 -3.11453125 5.00078125 -2.8515625 4.1640625 C-2 2 -2 2 0 0 Z " fill="#95C6C9" transform="translate(15,232)"/>
<path d="M0 0 C4 4.75 4 4.75 4 7 C3.01 7 2.02 7 1 7 C0.67 7.99 0.34 8.98 0 10 C-0.74926071 6.33694766 -1.2380014 3.57644848 0 0 Z " fill="#8ECBD1" transform="translate(62,230)"/>
<path d="M0 0 C0 0.99 0 1.98 0 3 C-3.63 3 -7.26 3 -11 3 C-6.93675441 0.9683772 -4.47525541 0 0 0 Z " fill="#9FD3D7" transform="translate(143,168)"/>
<path d="M0 0 C3.63 0 7.26 0 11 0 C7.09567131 1.95216435 4.27786748 2.50639991 0 3 C0 2.01 0 1.02 0 0 Z " fill="#A0D0D8" transform="translate(368,334)"/>
<path d="M0 0 C0.33 0 0.66 0 1 0 C1 2.64 1 5.28 1 8 C0.01 8 -0.98 8 -2 8 C-2.33 6.35 -2.66 4.7 -3 3 C-2.34 3 -1.68 3 -1 3 C-0.67 2.01 -0.34 1.02 0 0 Z " fill="#ABD6D9" transform="translate(119,264)"/>
<path d="M0 0 C0.33 0 0.66 0 1 0 C1.33 2.97 1.66 5.94 2 9 C0.68 8.67 -0.64 8.34 -2 8 C-1.125 1.125 -1.125 1.125 0 0 Z " fill="#85CFD7" transform="translate(174,264)"/>
<path d="M0 0 C0.33 0 0.66 0 1 0 C1.05399736 1.45792884 1.09279177 2.91642712 1.125 4.375 C1.14820313 5.18710938 1.17140625 5.99921875 1.1953125 6.8359375 C1 9 1 9 -1 11 C-1 10.34 -1 9.68 -1 9 C-1.66 9 -2.32 9 -3 9 C-3 8.34 -3 7.68 -3 7 C-2.34 7 -1.68 7 -1 7 C-0.67 4.69 -0.34 2.38 0 0 Z " fill="#82C1C4" transform="translate(307,232)"/>
<path d="M0 0 C1.33333333 2.66666667 2.66666667 5.33333333 4 8 C2.35 7.67 0.7 7.34 -1 7 C-1.04254356 5.00045254 -1.04080783 2.99958364 -1 1 C-0.67 0.67 -0.34 0.34 0 0 Z " fill="#A2CFD2" transform="translate(174,231)"/>
<path d="M0 0 C0 1.32 0 2.64 0 4 C-2.97 3.505 -2.97 3.505 -6 3 C-6 2.01 -6 1.02 -6 0 C-3 -1 -3 -1 0 0 Z " fill="#7FC5CD" transform="translate(288,226)"/>
<path d="M0 0 C0.66 0.33 1.32 0.66 2 1 C0.375 3.0625 0.375 3.0625 -2 5 C-5.25 4.75 -5.25 4.75 -8 4 C-5.31143836 2.20762558 -3.0466145 1.01553817 0 0 Z " fill="#9ECFD2" transform="translate(81,185)"/>
<path d="M0 0 C0 0.33 0 0.66 0 1 C-8.42857143 2.28571429 -8.42857143 2.28571429 -13 1 C-13 0.67 -13 0.34 -13 0 C-8.37078475 -1.0161692 -4.65537393 -0.83796731 0 0 Z " fill="#9ACDCD" transform="translate(158,167)"/>
<path d="M0 0 C0.33 0.66 0.66 1.32 1 2 C3.31 2 5.62 2 8 2 C8 2.33 8 2.66 8 3 C5.03 3.66 2.06 4.32 -1 5 C-1.33 3.68 -1.66 2.36 -2 1 C-1.34 0.67 -0.68 0.34 0 0 Z " fill="#92CBD1" transform="translate(253,271)"/>
<path d="M0 0 C0.99 0.33 1.98 0.66 3 1 C0.525 4.465 0.525 4.465 -2 8 C-2.99 7.01 -3.98 6.02 -5 5 C-4.01 5 -3.02 5 -2 5 C-1.34 3.35 -0.68 1.7 0 0 Z " fill="#A8D6DA" transform="translate(242,266)"/>
<path d="M0 0 C4.05606165 0.46800711 7.46588679 0.87953208 11 3 C6.70700357 4.26264601 4.12168689 3.62950412 0 2 C0 1.34 0 0.68 0 0 Z " fill="#A1C8D0" transform="translate(384,175)"/>
<path d="M0 0 C4.455 0.99 4.455 0.99 9 2 C5.1496895 4.56687367 3.41430237 3.83288724 -1 3 C-0.67 2.01 -0.34 1.02 0 0 Z " fill="#9BCCD2" transform="translate(374,172)"/>
<path d="M0 0 C-0.33 0.66 -0.66 1.32 -1 2 C-4.3 1.67 -7.6 1.34 -11 1 C-11 0.67 -11 0.34 -11 0 C-3.57142857 -1.28571429 -3.57142857 -1.28571429 0 0 Z " fill="#94CCD2" transform="translate(174,164)"/>
<path d="M0 0 C-5.75 4 -5.75 4 -8 4 C-7.1875 2.0625 -7.1875 2.0625 -6 0 C-3 -1 -3 -1 0 0 Z " fill="#9FD0D5" transform="translate(454,305)"/>
<path d="M0 0 C0.66 0.33 1.32 0.66 2 1 C1.34 3.64 0.68 6.28 0 9 C-0.99 9 -1.98 9 -3 9 C-2.30058404 5.85262818 -1.23921302 2.97411124 0 0 Z " fill="#9FD1D4" transform="translate(202,230)"/>
<path d="M0 0 C0.66 0.33 1.32 0.66 2 1 C2 1.99 2 2.98 2 4 C-0.64 4.33 -3.28 4.66 -6 5 C-5.195625 4.360625 -4.39125 3.72125 -3.5625 3.0625 C-1.7249496 1.59396498 -1.7249496 1.59396498 0 0 Z " fill="#A3D2D4" transform="translate(50,199)"/>
<path d="M0 0 C-0.33 0.66 -0.66 1.32 -1 2 C-6.75 1.25 -6.75 1.25 -9 -1 C-5.79937313 -2.60031344 -3.27728194 -1.03173691 0 0 Z " fill="#97D3D6" transform="translate(83,320)"/>
<path d="M0 0 C0.33 0.99 0.66 1.98 1 3 C-0.98 3.33 -2.96 3.66 -5 4 C-5 3.34 -5 2.68 -5 2 C-5.66 1.67 -6.32 1.34 -7 1 C-3.535 0.505 -3.535 0.505 0 0 Z " fill="#92C9D1" transform="translate(221,272)"/>
<path d="M0 0 C1.65 0 3.3 0 5 0 C5 0.99 5 1.98 5 3 C2.69 3 0.38 3 -2 3 C-1.34 2.67 -0.68 2.34 0 2 C0 1.34 0 0.68 0 0 Z " fill="#7EC5CF" transform="translate(229,272)"/>
<path d="M0 0 C0.61875 0.33 1.2375 0.66 1.875 1 C3.91018344 2.14193235 3.91018344 2.14193235 6 2 C6 2.99 6 3.98 6 5 C5.01 5.33 4.02 5.66 3 6 C2.34 5.67 1.68 5.34 1 5 C0.375 2.4375 0.375 2.4375 0 0 Z " fill="#9CD2D3" transform="translate(99,267)"/>
<path d="M0 0 C2.95183101 2.95183101 3.08663988 5.95511947 4 10 C3.01 9.67 2.02 9.34 1 9 C0.67 6.03 0.34 3.06 0 0 Z " fill="#A9D9DA" transform="translate(279,262)"/>
<path d="M0 0 C0.99 0 1.98 0 3 0 C3 2.31 3 4.62 3 7 C2.34 6.67 1.68 6.34 1 6 C1 5.34 1 4.68 1 4 C0.34 4 -0.32 4 -1 4 C-0.67 2.68 -0.34 1.36 0 0 Z " fill="#AFD7DE" transform="translate(363,246)"/>
<path d="M0 0 C2.13586678 3.20380017 2.23132175 4.01939967 2.125 7.6875 C2.10695312 8.49574219 2.08890625 9.30398437 2.0703125 10.13671875 C2.04710937 10.75160156 2.02390625 11.36648437 2 12 C1.67 12 1.34 12 1 12 C0.855625 10.9275 0.71125 9.855 0.5625 8.75 C0.10012053 5.20640191 0.10012053 5.20640191 -0.625 2.625 C-0.74875 2.08875 -0.8725 1.5525 -1 1 C-0.67 0.67 -0.34 0.34 0 0 Z " fill="#8ECACE" transform="translate(128,242)"/>
<path d="M0 0 C0.33 0.66 0.66 1.32 1 2 C3.31 2 5.62 2 8 2 C8 2.33 8 2.66 8 3 C7.05125 3.12375 6.1025 3.2475 5.125 3.375 C1.91332809 3.71687177 1.91332809 3.71687177 0 6 C0 5.01 0 4.02 0 3 C-0.66 2.67 -1.32 2.34 -2 2 C-1.34 1.34 -0.68 0.68 0 0 Z " fill="#9ECDD3" transform="translate(307,226)"/>
<path d="" fill="#FFFFFF" transform="translate(0,0)"/>
<path d="" fill="#FFFFFF" transform="translate(0,0)"/>
<path d="" fill="#FFFFFF" transform="translate(0,0)"/>
<path d="" fill="#FFFFFF" transform="translate(0,0)"/>
<path d="" fill="#FFFFFF" transform="translate(0,0)"/>
<path d="" fill="#FFFFFF" transform="translate(0,0)"/>
<path d="" fill="#FFFFFF" transform="translate(0,0)"/>
<path d="" fill="#FFFFFF" transform="translate(0,0)"/>
<path d="" fill="#FFFFFF" transform="translate(0,0)"/>
<path d="" fill="#FFFFFF" transform="translate(0,0)"/>
<path d="" fill="#FFFFFF" transform="translate(0,0)"/>
<path d="" fill="#FFFFFF" transform="translate(0,0)"/>
<path d="" fill="#FFFFFF" transform="translate(0,0)"/>
<path d="" fill="#FFFFFF" transform="translate(0,0)"/>
<path d="" fill="#FFFFFF" transform="translate(0,0)"/>
<path d="" fill="#FFFFFF" transform="translate(0,0)"/>
<path d="" fill="#FFFFFF" transform="translate(0,0)"/>
<path d="" fill="#FFFFFF" transform="translate(0,0)"/>
<path d="" fill="#FFFFFF" transform="translate(0,0)"/>
<path d="" fill="#FFFFFF" transform="translate(0,0)"/>
<path d="" fill="#FFFFFF" transform="translate(0,0)"/>
<path d="" fill="#FFFFFF" transform="translate(0,0)"/>
<path d="" fill="#FFFFFF" transform="translate(0,0)"/>
<path d="" fill="#FFFFFF" transform="translate(0,0)"/>
<path d="" fill="#FFFFFF" transform="translate(0,0)"/>
<path d="" fill="#FFFFFF" transform="translate(0,0)"/>
<path d="" fill="#FFFFFF" transform="translate(0,0)"/>
<path d="" fill="#FFFFFF" transform="translate(0,0)"/>
<path d="" fill="#FFFFFF" transform="translate(0,0)"/>
<path d="" fill="#FFFFFF" transform="translate(0,0)"/>
<path d="" fill="#FFFFFF" transform="translate(0,0)"/>
<path d="" fill="#FFFFFF" transform="translate(0,0)"/>
<path d="" fill="#FFFFFF" transform="translate(0,0)"/>
<path d="" fill="#FFFFFF" transform="translate(0,0)"/>
<path d="" fill="#FFFFFF" transform="translate(0,0)"/>
<path d="" fill="#FFFFFF" transform="translate(0,0)"/>
<path d="" fill="#FFFFFF" transform="translate(0,0)"/>
<path d="" fill="#FFFFFF" transform="translate(0,0)"/>
<path d="" fill="#FFFFFF" transform="translate(0,0)"/>
<path d="" fill="#FFFFFF" transform="translate(0,0)"/>
<path d="" fill="#FFFFFF" transform="translate(0,0)"/>
<path d="" fill="#FFFFFF" transform="translate(0,0)"/>
<path d="" fill="#FFFFFF" transform="translate(0,0)"/>
<path d="" fill="#FFFFFF" transform="translate(0,0)"/>
<path d="" fill="#FFFFFF" transform="translate(0,0)"/>
<path d="" fill="#FFFFFF" transform="translate(0,0)"/>
<path d="" fill="#FFFFFF" transform="translate(0,0)"/>
<path d="" fill="#FFFFFF" transform="translate(0,0)"/>
<path d="" fill="#FFFFFF" transform="translate(0,0)"/>
<path d="" fill="#FFFFFF" transform="translate(0,0)"/>
<path d="" fill="#FFFFFF" transform="translate(0,0)"/>
<path d="" fill="#FFFFFF" transform="translate(0,0)"/>
<path d="" fill="#FFFFFF" transform="translate(0,0)"/>
<path d="" fill="#FFFFFF" transform="translate(0,0)"/>
<path d="" fill="#FFFFFF" transform="translate(0,0)"/>
<path d="" fill="#FFFFFF" transform="translate(0,0)"/>
<path d="" fill="#FFFFFF" transform="translate(0,0)"/>
<path d="" fill="#FFFFFF" transform="translate(0,0)"/>
<path d="" fill="#FFFFFF" transform="translate(0,0)"/>
<path d="" fill="#FFFFFF" transform="translate(0,0)"/>
<path d="" fill="#FFFFFF" transform="translate(0,0)"/>
<path d="" fill="#FFFFFF" transform="translate(0,0)"/>
<path d="" fill="#FFFFFF" transform="translate(0,0)"/>
<path d="" fill="#FFFFFF" transform="translate(0,0)"/>
<path d="" fill="#FFFFFF" transform="translate(0,0)"/>
<path d="" fill="#FFFFFF" transform="translate(0,0)"/>
<path d="" fill="#FFFFFF" transform="translate(0,0)"/>
<path d="" fill="#FFFFFF" transform="translate(0,0)"/>
<path d="" fill="#FFFFFF" transform="translate(0,0)"/>
<path d="" fill="#FFFFFF" transform="translate(0,0)"/>
<path d="" fill="#FFFFFF" transform="translate(0,0)"/>
</svg>
