<?xml version="1.0" encoding="UTF-8"?>
<svg version="1.1" xmlns="http://www.w3.org/2000/svg" width="500" height="500">
<path d="M0 0 C1.09505859 0.03915527 2.19011719 0.07831055 3.31835938 0.11865234 C7.79952847 0.3069307 11.97941693 0.65118759 16.375 1.5625 C18.58177056 1.71258263 20.79052568 1.83461982 23 1.9375 C31.32276698 2.41894831 39.45199984 3.71224215 47.66357422 5.10791016 C50.61821186 5.6032762 53.57616133 6.07435795 56.53515625 6.54296875 C58.64848885 6.88249306 60.76177079 7.22233282 62.875 7.5625 C64.34247681 7.7932019 64.34247681 7.7932019 65.83959961 8.02856445 C71.59091398 8.97029158 77.13070175 10.2407583 82.73535156 11.83496094 C85.20154171 12.51469148 87.66341358 13.09585065 90.1640625 13.6328125 C100.19864112 15.8026741 109.83927098 18.57378313 119.5 22.0625 C120.51787598 22.43004395 121.53575195 22.79758789 122.58447266 23.17626953 C129.3293745 25.67237957 135.87137944 28.49539455 142.375 31.5625 C143.09042969 31.89781738 143.80585938 32.23313477 144.54296875 32.57861328 C156.87574343 38.42636348 169.33271421 45.17955621 179.375 54.5625 C179.375 55.2225 179.375 55.8825 179.375 56.5625 C180.035 56.5625 180.695 56.5625 181.375 56.5625 C181.375 57.2225 181.375 57.8825 181.375 58.5625 C182.035 58.5625 182.695 58.5625 183.375 58.5625 C192.06058718 67.879456 197.4424626 78.74445645 198 91.625 C197.62215218 101.51572227 193.57462239 110.2816199 188.375 118.5625 C187.715 118.5625 187.055 118.5625 186.375 118.5625 C186.375 119.2225 186.375 119.8825 186.375 120.5625 C185.715 120.5625 185.055 120.5625 184.375 120.5625 C184.10171875 121.15804687 183.8284375 121.75359375 183.546875 122.3671875 C177.71618036 133.29002213 162.90046825 141.20193344 152.13671875 146.24609375 C148.74071116 147.86484135 145.53339943 149.73982762 142.3125 151.6796875 C140.375 152.5625 140.375 152.5625 136.375 152.5625 C136.375 153.2225 136.375 153.8825 136.375 154.5625 C122.96405087 159.82138232 109.41281317 163.97552728 95.50195312 167.70117188 C93.35808928 168.29170526 91.2214796 168.90903647 89.09179688 169.54882812 C80.6826408 172.06725764 72.31102431 173.84907434 63.67138672 175.31787109 C61.50717735 175.68627822 59.3453679 176.06680751 57.18359375 176.44921875 C48.33079642 177.99758524 39.46350576 179.33228636 30.5289917 180.31890869 C29.08555407 180.48214463 27.6431628 180.65489694 26.20196533 180.83685303 C7.69405161 183.15851976 -10.91959167 182.86924068 -29.53759766 182.82324219 C-34.19003711 182.81184838 -38.84224781 182.81861973 -43.49467945 182.83011913 C-61.95520207 182.86893683 -80.28134027 182.9035531 -98.625 180.5625 C-99.93484863 180.41119629 -101.24469727 180.25989258 -102.59423828 180.10400391 C-106.04854366 179.69067218 -109.49247931 179.23422772 -112.9375 178.75 C-114.15260254 178.57968262 -115.36770508 178.40936523 -116.61962891 178.23388672 C-143.63237732 174.32770899 -170.06240352 168.17363372 -195.625 158.5625 C-196.30498047 158.31000488 -196.98496094 158.05750977 -197.68554688 157.79736328 C-207.68666913 154.05818246 -217.14817406 149.45866531 -226.625 144.5625 C-227.285 144.2325 -227.945 143.9025 -228.625 143.5625 C-228.625 142.9025 -228.625 142.2425 -228.625 141.5625 C-229.1715625 141.46582031 -229.718125 141.36914062 -230.28125 141.26953125 C-238.46918797 138.7995033 -245.43223604 132.12043087 -251.375 126.1875 C-251.90029297 125.66373779 -252.42558594 125.13997559 -252.96679688 124.6003418 C-256.625 120.83226982 -256.625 120.83226982 -256.625 118.5625 C-257.285 118.5625 -257.945 118.5625 -258.625 118.5625 C-266.77445662 108.88848517 -268.89703018 96.82616945 -267.89990234 84.58691406 C-266.74498147 76.08193727 -262.09294778 68.95066338 -256.625 62.5625 C-256.05523437 61.87285156 -255.48546875 61.18320313 -254.8984375 60.47265625 C-251.4382506 56.37988012 -247.92970691 52.76600282 -243.625 49.5625 C-242.965 49.5625 -242.305 49.5625 -241.625 49.5625 C-241.625 48.9025 -241.625 48.2425 -241.625 47.5625 C-239.645 46.9025 -237.665 46.2425 -235.625 45.5625 C-235.625 44.9025 -235.625 44.2425 -235.625 43.5625 C-225.22265648 37.4621895 -214.7547858 32.19690919 -203.625 27.5625 C-202.4390625 27.04429687 -201.253125 26.52609375 -200.03125 25.9921875 C-196.94285783 24.6959128 -193.8737485 23.58894247 -190.6875 22.5625 C-187.35520484 21.48611933 -184.06867851 20.35547292 -180.8046875 19.08984375 C-176.50312928 17.46355153 -172.13977285 16.26298333 -167.6875 15.125 C-166.85758545 14.91109619 -166.0276709 14.69719238 -165.17260742 14.47680664 C-162.65819448 13.83281613 -160.14176136 13.19724054 -157.625 12.5625 C-156.91666016 12.38041992 -156.20832031 12.19833984 -155.47851562 12.01074219 C-137.82728936 7.49155166 -119.71259162 4.67145238 -101.625 2.5625 C-100.56925781 2.43512451 -100.56925781 2.43512451 -99.4921875 2.30517578 C-66.63377768 -1.59746611 -33.03316794 -1.18367328 0 0 Z M-215.625 66.5625 C-215.625 68.2125 -215.625 69.8625 -215.625 71.5625 C-214.635 72.0575 -214.635 72.0575 -213.625 72.5625 C-212.51171875 74.3125 -212.51171875 74.3125 -211.3125 76.5625 C-210.879375 77.36558594 -210.44625 78.16867188 -210 78.99609375 C-209.54625 79.84300781 -209.0925 80.68992187 -208.625 81.5625 C-207.6903048 83.25155518 -206.75294755 84.9391409 -205.8125 86.625 C-204.71875 88.59375 -204.71875 88.59375 -203.625 90.5625 C-202.965 90.5625 -202.305 90.5625 -201.625 90.5625 C-201.37621094 91.41070312 -201.12742187 92.25890625 -200.87109375 93.1328125 C-199.52253098 96.84453073 -197.74966722 100.09262693 -195.6875 103.4375 C-195.34009766 104.03046875 -194.99269531 104.6234375 -194.63476562 105.234375 C-193.51013559 107.13233656 -193.51013559 107.13233656 -191.625 109.5625 C-190.635 109.5625 -189.645 109.5625 -188.625 109.5625 C-187.89365524 102.14306092 -187.89365524 102.14306092 -190.75 95.5625 C-191.20632812 95.11777344 -191.66265625 94.67304688 -192.1328125 94.21484375 C-194.08819743 92.04958766 -195.27280102 89.70678924 -196.625 87.125 C-198.67303921 83.24422827 -200.83473167 79.70256803 -203.4609375 76.1953125 C-205.41643609 73.45236482 -206.98027321 70.49951212 -208.625 67.5625 C-209.75034105 66.20631501 -209.75034105 66.20631501 -212.6875 66.5 C-213.656875 66.520625 -214.62625 66.54125 -215.625 66.5625 Z M-153.625 66.5625 C-153.955 67.2225 -154.285 67.8825 -154.625 68.5625 C-153.635 68.2325 -152.645 67.9025 -151.625 67.5625 C-152.285 67.2325 -152.945 66.9025 -153.625 66.5625 Z M-141.625 66.5625 C-141.625 81.0825 -141.625 95.6025 -141.625 110.5625 C-139.975 110.5625 -138.325 110.5625 -136.625 110.5625 C-134.73776476 108.67526476 -135.49605741 105.93812737 -135.48605347 103.42752075 C-135.48908981 102.13695267 -135.48908981 102.13695267 -135.4921875 100.8203125 C-135.49123077 99.94100067 -135.49027405 99.06168884 -135.48928833 98.1557312 C-135.48860634 96.29115732 -135.49046191 94.42658107 -135.49462891 92.56201172 C-135.49996422 89.70665132 -135.49469113 86.85144914 -135.48828125 83.99609375 C-135.48894228 82.18749965 -135.49022395 80.37890565 -135.4921875 78.5703125 C-135.49016327 77.71398224 -135.48813904 76.85765198 -135.48605347 75.97537231 C-135.49943043 72.59151304 -135.54754867 69.794854 -136.625 66.5625 C-138.275 66.5625 -139.925 66.5625 -141.625 66.5625 Z M-123.625 66.5625 C-124.94388364 69.51190764 -124.94388364 69.51190764 -123.71337891 72.24853516 C-122.45754642 76.07237323 -122.2754492 79.60539101 -122.2109375 83.5859375 C-122.19157135 84.33211334 -122.1722052 85.07828918 -122.1522522 85.84707642 C-122.09287935 88.21043777 -122.0462422 90.57384897 -122 92.9375 C-121.96178116 94.54819732 -121.9227272 96.15887506 -121.8828125 97.76953125 C-121.78721324 101.70036016 -121.703028 105.63128463 -121.625 109.5625 C-119.96885343 109.94468767 -118.30042976 110.27645102 -116.625 110.5625 C-114.73776476 108.67526476 -115.49605741 105.93812737 -115.48605347 103.42752075 C-115.4880777 102.56714203 -115.49010193 101.70676331 -115.4921875 100.8203125 C-115.49123077 99.94100067 -115.49027405 99.06168884 -115.48928833 98.1557312 C-115.48860634 96.29115732 -115.49046191 94.42658107 -115.49462891 92.56201172 C-115.49996422 89.70665132 -115.49469113 86.85144914 -115.48828125 83.99609375 C-115.48894228 82.18749965 -115.49022395 80.37890565 -115.4921875 78.5703125 C-115.48915115 77.28581711 -115.48915115 77.28581711 -115.48605347 75.97537231 C-115.49943043 72.59151304 -115.54754867 69.794854 -116.625 66.5625 C-118.935 66.5625 -121.245 66.5625 -123.625 66.5625 Z M-107.625 66.5625 C-108.11619788 71.47447877 -106.96140485 74.19206508 -104.69921875 78.3671875 C-103.18449826 81.46272538 -102.34304833 84.66420291 -101.41015625 87.97265625 C-100.10319541 92.28367635 -98.35058734 96.40572079 -96.625 100.5625 C-95.9563253 102.22836205 -95.28912136 103.89481747 -94.625 105.5625 C-92.3791004 103.80483944 -91.65544445 102.66805106 -90.85546875 99.89453125 C-90.573514 95.8181346 -91.72637997 93.00064855 -93.375 89.375 C-95.7208816 83.92730423 -97.5757735 78.63764594 -98.88671875 72.83203125 C-99.732775 70.23119167 -100.77061632 68.56760945 -102.625 66.5625 C-105.25125139 66.22824265 -105.25125139 66.22824265 -107.625 66.5625 Z M-79.625 66.5625 C-80.54434702 71.9083327 -80.6931642 76.92708049 -80.50390625 82.33984375 C-80.48029526 83.15119278 -80.45668427 83.96254181 -80.43235779 84.79847717 C-80.35636277 87.36585858 -80.27206652 89.93288809 -80.1875 92.5 C-80.13421489 94.25063437 -80.08147505 96.00128542 -80.02929688 97.75195312 C-79.90083562 102.02235424 -79.76493369 106.29246005 -79.625 110.5625 C-77.95888095 110.605221 -76.29117115 110.60313832 -74.625 110.5625 C-73.43409045 109.59060605 -73.43409045 109.59060605 -73.50474548 107.80979919 C-73.50696609 107.04812943 -73.50918671 106.28645966 -73.51147461 105.50170898 C-73.51155014 104.64089218 -73.51162567 103.78007538 -73.51170349 102.89317322 C-73.51944542 101.49005638 -73.51944542 101.49005638 -73.52734375 100.05859375 C-73.5287587 99.10557877 -73.53017365 98.15256378 -73.53163147 97.17066956 C-73.53724848 94.11374835 -73.54980384 91.05689923 -73.5625 88 C-73.56751281 85.93294376 -73.57207609 83.86588638 -73.57617188 81.79882812 C-73.58722344 76.72002412 -73.60449945 71.6412743 -73.625 66.5625 C-75.605 66.5625 -77.585 66.5625 -79.625 66.5625 Z M-68.625 66.5625 C-68.625 81.0825 -68.625 95.6025 -68.625 110.5625 C-66.975 110.5625 -65.325 110.5625 -63.625 110.5625 C-61.91123388 107.13496776 -62.4835464 103.20453256 -62.4921875 99.43359375 C-62.49123077 98.52875748 -62.49027405 97.6239212 -62.48928833 96.69166565 C-62.48860727 94.77759736 -62.49045639 92.86352676 -62.49462891 90.94946289 C-62.49998439 88.00857396 -62.49467822 85.06783733 -62.48828125 82.12695312 C-62.48894192 80.27083299 -62.49022286 78.41471296 -62.4921875 76.55859375 C-62.49016327 75.67320419 -62.48813904 74.78781464 -62.48605347 73.87559509 C-62.10140624 69.90214707 -62.10140624 69.90214707 -63.625 66.5625 C-65.275 66.5625 -66.925 66.5625 -68.625 66.5625 Z M-46.625 66.5625 C-45.34437515 68.2699998 -44.00732443 69.93623596 -42.625 71.5625 C-41.965 71.5625 -41.305 71.5625 -40.625 71.5625 C-40.295 69.9125 -39.965 68.2625 -39.625 66.5625 C-41.935 66.5625 -44.245 66.5625 -46.625 66.5625 Z M-30.625 66.5625 C-30.64964513 72.6680471 -30.66783371 78.77356551 -30.67993164 84.87915039 C-30.68497288 86.95793156 -30.69180574 89.03670916 -30.70043945 91.11547852 C-30.71251422 94.09652586 -30.71823024 97.07752649 -30.72265625 100.05859375 C-30.72781754 100.99400497 -30.73297882 101.9294162 -30.73829651 102.89317322 C-30.73837204 103.75399002 -30.73844757 104.61480682 -30.73852539 105.50170898 C-30.740746 106.26337875 -30.74296661 107.02504852 -30.74525452 107.80979919 C-30.81590955 109.59060605 -30.81590955 109.59060605 -29.625 110.5625 C-27.975 110.5625 -26.325 110.5625 -24.625 110.5625 C-24.625 96.0425 -24.625 81.5225 -24.625 66.5625 C-26.605 66.5625 -28.585 66.5625 -30.625 66.5625 Z M21.375 66.5625 C21.31441406 67.85027344 21.25382812 69.13804687 21.19140625 70.46484375 C21.10701753 72.14324159 21.0223687 73.82162636 20.9375 75.5 C20.89818359 76.35013672 20.85886719 77.20027344 20.81835938 78.07617188 C20.77646484 78.88505859 20.73457031 79.69394531 20.69140625 80.52734375 C20.63641968 81.65064087 20.63641968 81.65064087 20.58032227 82.79663086 C20.375 84.5625 20.375 84.5625 19.375 85.5625 C19.15457031 84.60150391 19.15457031 84.60150391 18.9296875 83.62109375 C17.28287991 77.27047368 15.06766364 73.14885735 10.375 68.5625 C9.385 69.0575 9.385 69.0575 8.375 69.5625 C8.8390625 70.3359375 8.8390625 70.3359375 9.3125 71.125 C11.76413004 76.74932774 11.53239883 83.02551809 11.5 89.0625 C11.50386719 89.78308594 11.50773437 90.50367188 11.51171875 91.24609375 C11.50106469 97.13778883 10.9701503 102.86553464 9.375 108.5625 C14.63679414 103.58512716 17.52743697 99.85154202 18.375 92.5625 C19.035 92.8925 19.695 93.2225 20.375 93.5625 C20.63194509 95.84580749 20.78110225 98.14170012 20.875 100.4375 C20.99844542 105.84694378 20.99844542 105.84694378 23.375 110.5625 C24.695 110.5625 26.015 110.5625 27.375 110.5625 C28.26892492 95.79956302 28.36497772 81.32078326 27.375 66.5625 C25.395 66.5625 23.415 66.5625 21.375 66.5625 Z M48.375 66.5625 C47.79298881 77.45508712 47.27565819 88.33992257 47.25 99.25 C47.24548828 100.04446533 47.24097656 100.83893066 47.23632812 101.6574707 C47.24481992 104.88824503 47.34608581 107.47575744 48.375 110.5625 C50.025 110.5625 51.675 110.5625 53.375 110.5625 C53.375 96.0425 53.375 81.5225 53.375 66.5625 C51.725 66.5625 50.075 66.5625 48.375 66.5625 Z M59.375 66.5625 C59.375 81.0825 59.375 95.6025 59.375 110.5625 C61.355 110.5625 63.335 110.5625 65.375 110.5625 C65.375 96.0425 65.375 81.5225 65.375 66.5625 C63.395 66.5625 61.415 66.5625 59.375 66.5625 Z M81.375 66.5625 C82.66465176 67.93812854 84.00189293 69.27016393 85.375 70.5625 C86.035 70.5625 86.695 70.5625 87.375 70.5625 C87.375 69.5725 87.375 68.5825 87.375 67.5625 C84.405 67.0675 84.405 67.0675 81.375 66.5625 Z M90.375 66.5625 C89.18409045 67.53439395 89.18409045 67.53439395 89.25474548 69.31520081 C89.25696609 70.07687057 89.25918671 70.83854034 89.26147461 71.62329102 C89.26155014 72.48410782 89.26162567 73.34492462 89.26170349 74.23182678 C89.26686478 75.16723801 89.27202606 76.10264923 89.27734375 77.06640625 C89.2787587 78.01942123 89.28017365 78.97243622 89.28163147 79.95433044 C89.28724848 83.01125165 89.29980384 86.06810077 89.3125 89.125 C89.31751281 91.19205624 89.32207609 93.25911362 89.32617188 95.32617188 C89.33722344 100.40497588 89.35449945 105.4837257 89.375 110.5625 C91.355 110.5625 93.335 110.5625 95.375 110.5625 C95.375 96.0425 95.375 81.5225 95.375 66.5625 C93.725 66.5625 92.075 66.5625 90.375 66.5625 Z M118.375 66.5625 C118.35518066 67.42415771 118.33536133 68.28581543 118.31494141 69.17358398 C118.23622646 72.41111657 118.14951628 75.64831491 118.05761719 78.88549805 C118.01964703 80.27897073 117.9847423 81.67253081 117.953125 83.06616211 C117.5250103 101.70921965 117.5250103 101.70921965 113.375 109.5625 C116.62803044 111.18901522 119.76725602 110.67703156 123.375 110.5625 C125.32363925 108.61386075 124.5041874 105.6644128 124.51394653 103.07128906 C124.5119223 102.16088867 124.50989807 101.25048828 124.5078125 100.3125 C124.50876923 99.38405273 124.50972595 98.45560547 124.51071167 97.49902344 C124.51139355 95.53190035 124.50953872 93.56477504 124.50537109 91.59765625 C124.50002295 88.57546974 124.50531582 85.55343185 124.51171875 82.53125 C124.51105797 80.62499967 124.50977681 78.71874943 124.5078125 76.8125 C124.50983673 75.90209961 124.51186096 74.99169922 124.51394653 74.05371094 C124.91391332 69.98586322 124.91391332 69.98586322 123.375 66.5625 C121.70882885 66.52186168 120.04111905 66.519779 118.375 66.5625 Z M-13.625 67.5625 C-12.965 68.2225 -12.305 68.8825 -11.625 69.5625 C-11.625 68.9025 -11.625 68.2425 -11.625 67.5625 C-12.285 67.5625 -12.945 67.5625 -13.625 67.5625 Z M-176.625 68.5625 C-182.85868853 74.86888461 -185.46536074 80.68075227 -185.625 89.5625 C-185.0748929 96.65276934 -182.10427936 102.10946426 -177.625 107.5625 C-176.965 107.8925 -176.305 108.2225 -175.625 108.5625 C-175.8415625 107.87027344 -176.058125 107.17804688 -176.28125 106.46484375 C-179.98599534 93.44678028 -179.29284263 81.50911118 -175.625 68.5625 C-175.955 68.5625 -176.285 68.5625 -176.625 68.5625 Z M-161.625 69.5625 C-161.480625 70.15933594 -161.33625 70.75617188 -161.1875 71.37109375 C-158.66014221 83.1829812 -158.40419813 95.85833607 -161.625 107.5625 C-156.09597044 104.1836486 -154.24439894 99.60477346 -152.625 93.5625 C-151.63252253 86.43871726 -153.23331572 80.25352151 -155.625 73.5625 C-156.285 73.5625 -156.945 73.5625 -157.625 73.5625 C-157.955 72.5725 -158.285 71.5825 -158.625 70.5625 C-159.615 70.2325 -160.605 69.9025 -161.625 69.5625 Z M-7.9375 71.25 C-12.19161253 75.66629277 -13.72314925 81.64078885 -14.625 87.5625 C-14.01586221 94.64372679 -11.50480928 100.67589281 -7.625 106.5625 C-6.965 106.5625 -6.305 106.5625 -5.625 106.5625 C-5.625 107.2225 -5.625 107.8825 -5.625 108.5625 C-4.635 108.0675 -4.635 108.0675 -3.625 107.5625 C-3.934375 107.02625 -4.24375 106.49 -4.5625 105.9375 C-6.90770191 100.69528398 -6.81758704 95.03115536 -6.8125 89.375 C-6.81314453 88.63193604 -6.81378906 87.88887207 -6.81445312 87.12329102 C-6.75726729 81.11812865 -6.03919662 75.40868781 -4.625 69.5625 C-5.96749245 69.46425515 -5.96749245 69.46425515 -7.9375 71.25 Z M-52.625 85.5625 C-52.625 86.2225 -52.625 86.8825 -52.625 87.5625 C-53.615 88.0575 -53.615 88.0575 -54.625 88.5625 C-53.965 88.5625 -53.305 88.5625 -52.625 88.5625 C-52.295 89.2225 -51.965 89.8825 -51.625 90.5625 C-51.625 88.9125 -51.625 87.2625 -51.625 85.5625 C-51.955 85.5625 -52.285 85.5625 -52.625 85.5625 Z M74.375 86.5625 C74.375 87.5525 74.375 88.5425 74.375 89.5625 C75.035 89.5625 75.695 89.5625 76.375 89.5625 C76.375 88.5725 76.375 87.5825 76.375 86.5625 C75.715 86.5625 75.055 86.5625 74.375 86.5625 Z M-41.625 104.5625 C-42.6510734 105.87587396 -43.65227325 107.20914105 -44.625 108.5625 C-44.295 109.2225 -43.965 109.8825 -43.625 110.5625 C-42.635 110.2325 -41.645 109.9025 -40.625 109.5625 C-40.625 107.9125 -40.625 106.2625 -40.625 104.5625 C-40.955 104.5625 -41.285 104.5625 -41.625 104.5625 Z M86.375 105.5625 C84.89 107.5425 84.89 107.5425 83.375 109.5625 C84.695 109.5625 86.015 109.5625 87.375 109.5625 C87.045 108.2425 86.715 106.9225 86.375 105.5625 Z M144.375 106.5625 C143.385 108.0475 143.385 108.0475 142.375 109.5625 C143.365 109.5625 144.355 109.5625 145.375 109.5625 C145.045 108.5725 144.715 107.5825 144.375 106.5625 Z " fill="#FBFBFB" transform="translate(287.625,159.4375)"/>
<path d="M0 0 C22.77 0 45.54 0 69 0 C69 2.31 69 4.62 69 7 C69.99 7.495 69.99 7.495 71 8 C70.01 9.98 69.02 11.96 68 14 C67.67 14 67.34 14 67 14 C66.505 8.555 66.505 8.555 66 3 C61.05 2.505 61.05 2.505 56 2 C56 16.19 56 30.38 56 45 C55.67 45 55.34 45 55 45 C55 30.48 55 15.96 55 1 C53.02 1 51.04 1 49 1 C49.33 15.52 49.66 30.04 50 45 C32.05256228 47.56391967 13.12386763 46 -5 46 C-5 45.34 -5 44.68 -5 44 C-3.68 44 -2.36 44 -1 44 C-1.33 33.11 -1.66 22.22 -2 11 C-4.22004133 17.48976039 -4.22004133 17.48976039 -6.42724609 23.98388672 C-6.70648926 24.79100098 -6.98573242 25.59811523 -7.2734375 26.4296875 C-7.55622559 27.25710449 -7.83901367 28.08452148 -8.13037109 28.93701172 C-9 31 -9 31 -11 33 C-11.33 31.68 -11.66 30.36 -12 29 C-11.34 29 -10.68 29 -10 29 C-9.773125 27.783125 -9.54625 26.56625 -9.3125 25.3125 C-5.90145706 9.90145706 -5.90145706 9.90145706 -1 5 C0.27385127 8.8215538 0.12353188 12.4068447 0.09765625 16.38671875 C0.0962413 17.20372757 0.09482635 18.02073639 0.09336853 18.86250305 C0.08777294 21.47087268 0.07522129 24.07915634 0.0625 26.6875 C0.05748443 28.45637897 0.05292162 30.22525928 0.04882812 31.99414062 C0.03780496 36.32946019 0.02054338 40.66471552 0 45 C2.475 44.505 2.475 44.505 5 44 C5.33 29.81 5.66 15.62 6 1 C4.02 1 2.04 1 0 1 C0 0.67 0 0.34 0 0 Z M11 1 C11 15.52 11 30.04 11 45 C12.65 45 14.3 45 16 45 C17.71376612 41.57246776 17.1414536 37.64203256 17.1328125 33.87109375 C17.13376923 32.96625748 17.13472595 32.0614212 17.13571167 31.12916565 C17.13639273 29.21509736 17.13454361 27.30102676 17.13037109 25.38696289 C17.12501561 22.44607396 17.13032178 19.50533733 17.13671875 16.56445312 C17.13605808 14.70833299 17.13477714 12.85221296 17.1328125 10.99609375 C17.13483673 10.11070419 17.13686096 9.22531464 17.13894653 8.31309509 C17.52359376 4.33964707 17.52359376 4.33964707 16 1 C14.35 1 12.7 1 11 1 Z M33 1 C34.28062485 2.7074998 35.61767557 4.37373596 37 6 C37.66 6 38.32 6 39 6 C39.33 4.35 39.66 2.7 40 1 C37.69 1 35.38 1 33 1 Z M66 2 C66.66 2.66 67.32 3.32 68 4 C68 3.34 68 2.68 68 2 C67.34 2 66.68 2 66 2 Z M27 20 C27 20.66 27 21.32 27 22 C26.01 22.495 26.01 22.495 25 23 C25.66 23 26.32 23 27 23 C27.33 23.66 27.66 24.32 28 25 C28 23.35 28 21.7 28 20 C27.67 20 27.34 20 27 20 Z M38 39 C36.9739266 40.31337396 35.97272675 41.64664105 35 43 C35.33 43.66 35.66 44.32 36 45 C36.99 44.67 37.98 44.34 39 44 C39 42.35 39 40.7 39 39 C38.67 39 38.34 39 38 39 Z " fill="#FAF9F9" transform="translate(208,225)"/>
<path d="M0 0 C19.47 0 38.94 0 59 0 C59 0.66 59 1.32 59 2 C57.35 2 55.7 2 54 2 C54 15.86 54 29.72 54 44 C62.415 43.505 62.415 43.505 71 43 C71.66 43.66 72.32 44.32 73 45 C70.07917545 46.46041228 67.51698631 46.11928796 64.25537109 46.11352539 C63.21617775 46.11374443 63.21617775 46.11374443 62.1559906 46.1139679 C59.86177459 46.11327018 57.56763936 46.10548442 55.2734375 46.09765625 C53.68445887 46.09579157 52.09547966 46.0943679 50.50650024 46.09336853 C46.32090675 46.08954731 42.13534787 46.07972039 37.94976807 46.06866455 C33.68005847 46.05844194 29.4103433 46.05386909 25.140625 46.04882812 C16.76040077 46.03809778 8.38020469 46.02102608 0 46 C0 45.34 0 44.68 0 44 C1.65 44 3.3 44 5 44 C5.33 43.34 5.66 42.68 6 42 C6 42.99 6 43.98 6 45 C7.65 45 9.3 45 11 45 C11 30.48 11 15.96 11 1 C9.35 1 7.7 1 6 1 C6 7.93 6 14.86 6 22 C5.67 22 5.34 22 5 22 C5 15.4 5 8.8 5 2 C3.35 2 1.7 2 0 2 C0 1.34 0 0.68 0 0 Z M17 1 C17 15.52 17 30.04 17 45 C18.98 45 20.96 45 23 45 C23 30.48 23 15.96 23 1 C21.02 1 19.04 1 17 1 Z M39 1 C40.28965176 2.37562854 41.62689293 3.70766393 43 5 C43.66 5 44.32 5 45 5 C45 4.01 45 3.02 45 2 C42.03 1.505 42.03 1.505 39 1 Z M48 1 C46.80909045 1.97189395 46.80909045 1.97189395 46.87974548 3.75270081 C46.88196609 4.51437057 46.88418671 5.27604034 46.88647461 6.06079102 C46.88655014 6.92160782 46.88662567 7.78242462 46.88670349 8.66932678 C46.89186478 9.60473801 46.89702606 10.54014923 46.90234375 11.50390625 C46.9037587 12.45692123 46.90517365 13.40993622 46.90663147 14.39183044 C46.91224848 17.44875165 46.92480384 20.50560077 46.9375 23.5625 C46.94251281 25.62955624 46.94707609 27.69661362 46.95117188 29.76367188 C46.96222344 34.84247588 46.97949945 39.9212257 47 45 C48.98 45 50.96 45 53 45 C53 30.48 53 15.96 53 1 C51.35 1 49.7 1 48 1 Z M32 21 C32 21.99 32 22.98 32 24 C32.66 24 33.32 24 34 24 C34 23.01 34 22.02 34 21 C33.34 21 32.68 21 32 21 Z M44 40 C42.515 41.98 42.515 41.98 41 44 C42.32 44 43.64 44 45 44 C44.67 42.68 44.34 41.36 44 40 Z " fill="#F9F7F7" transform="translate(330,225)"/>
<path d="M0 0 C6.60314495 6.7909121 6.36958158 17.99042227 6.29370117 26.89306641 C6.15717652 32.17963783 5.47364462 36.93434663 4 42 C5.32 41.01 6.64 40.02 8 39 C8.33 39.99 8.66 40.98 9 42 C8.34 42.66 7.68 43.32 7 44 C6.34 43.67 5.68 43.34 5 43 C4.67 43.99 4.34 44.98 4 46 C-0.49819632 47.12454908 -4.39775869 47.51136015 -9 47 C-14.90110127 40.94360659 -15.12490246 32.65906867 -15.3125 24.625 C-15.22611081 18.00625867 -14.23662155 12.21739751 -12 6 C-11.67773438 5.09507812 -11.35546875 4.19015625 -11.0234375 3.2578125 C-9.05927787 -1.07533356 -4.2524578 -0.91785723 0 0 Z " fill="#E9E7E7" transform="translate(123,224)"/>
<path d="M0 0 C0.66 0.33 1.32 0.66 2 1 C2 1.66 2 2.32 2 3 C2.99 3 3.98 3 5 3 C4.67 3.66 4.34 4.32 4 5 C4.2981424 6.34164079 4.64141484 7.67323492 5 9 C5.89059492 14.21914814 6.15329991 19.22678424 6.125 24.5 C6.13080078 25.58087891 6.13080078 25.58087891 6.13671875 26.68359375 C6.10921932 41.89078068 6.10921932 41.89078068 1 47 C-3.14303933 47.43699401 -6.81494223 47.60698081 -10.5625 45.6875 C-12 44 -12 44 -12 41 C-12.32484375 39.79214844 -12.6496875 38.58429688 -12.984375 37.33984375 C-14.09888522 33.03046987 -14.30753111 28.99744204 -14.25 24.5625 C-14.24468262 23.81967773 -14.23936523 23.07685547 -14.23388672 22.31152344 C-14.11192695 15.26255742 -13.2794161 8.36592537 -10 2 C-6.33134759 -0.44576827 -4.32799657 -0.23607254 0 0 Z " fill="#EFEEEE" transform="translate(294,224)"/>
<path d="M0 0 C22.77 0 45.54 0 69 0 C69 2.31 69 4.62 69 7 C69.99 7.495 69.99 7.495 71 8 C70.01 9.98 69.02 11.96 68 14 C67.67 14 67.34 14 67 14 C66.505 8.555 66.505 8.555 66 3 C61.05 2.505 61.05 2.505 56 2 C56 16.19 56 30.38 56 45 C55.67 45 55.34 45 55 45 C55 30.48 55 15.96 55 1 C53.02 1 51.04 1 49 1 C49.33 15.52 49.66 30.04 50 45 C49.34 45 48.68 45 48 45 C48 30.81 48 16.62 48 2 C43.71 2 39.42 2 35 2 C35 2.33 35 2.66 35 3 C29.39 3 23.78 3 18 3 C18 8.94 18 14.88 18 21 C25.24822148 20.35954625 25.24822148 20.35954625 29 19 C29 22.96 29 26.92 29 31 C27 27 27 27 26 24 C23.03 24 20.06 24 17 24 C17.33 30.6 17.66 37.2 18 44 C23.4150362 43.63277818 23.4150362 43.63277818 28.82910156 43.25170898 C29.5094043 43.20860596 30.18970703 43.16550293 30.890625 43.12109375 C31.58188477 43.0739624 32.27314453 43.02683105 32.98535156 42.97827148 C35.13617072 43.00146864 36.94084871 43.4004236 39 44 C38.7215625 42.4221875 38.7215625 42.4221875 38.4375 40.8125 C38.04920669 37.42880118 38.11752515 35.23574112 39 32 C39.33 32 39.66 32 40 32 C40 36.62 40 41.24 40 46 C25.15 46 10.3 46 -5 46 C-5 45.34 -5 44.68 -5 44 C-3.68 44 -2.36 44 -1 44 C-1.33 33.11 -1.66 22.22 -2 11 C-4.22004133 17.48976039 -4.22004133 17.48976039 -6.42724609 23.98388672 C-6.70648926 24.79100098 -6.98573242 25.59811523 -7.2734375 26.4296875 C-7.55622559 27.25710449 -7.83901367 28.08452148 -8.13037109 28.93701172 C-9 31 -9 31 -11 33 C-11.33 31.68 -11.66 30.36 -12 29 C-11.34 29 -10.68 29 -10 29 C-9.773125 27.783125 -9.54625 26.56625 -9.3125 25.3125 C-5.90145706 9.90145706 -5.90145706 9.90145706 -1 5 C0.27385127 8.8215538 0.12353188 12.4068447 0.09765625 16.38671875 C0.0962413 17.20372757 0.09482635 18.02073639 0.09336853 18.86250305 C0.08777294 21.47087268 0.07522129 24.07915634 0.0625 26.6875 C0.05748443 28.45637897 0.05292162 30.22525928 0.04882812 31.99414062 C0.03780496 36.32946019 0.02054338 40.66471552 0 45 C2.475 44.505 2.475 44.505 5 44 C5.33 29.81 5.66 15.62 6 1 C4.02 1 2.04 1 0 1 C0 0.67 0 0.34 0 0 Z M11 1 C11 15.52 11 30.04 11 45 C12.65 45 14.3 45 16 45 C17.71376612 41.57246776 17.1414536 37.64203256 17.1328125 33.87109375 C17.13376923 32.96625748 17.13472595 32.0614212 17.13571167 31.12916565 C17.13639273 29.21509736 17.13454361 27.30102676 17.13037109 25.38696289 C17.12501561 22.44607396 17.13032178 19.50533733 17.13671875 16.56445312 C17.13605808 14.70833299 17.13477714 12.85221296 17.1328125 10.99609375 C17.13483673 10.11070419 17.13686096 9.22531464 17.13894653 8.31309509 C17.52359376 4.33964707 17.52359376 4.33964707 16 1 C14.35 1 12.7 1 11 1 Z M66 2 C66.66 2.66 67.32 3.32 68 4 C68 3.34 68 2.68 68 2 C67.34 2 66.68 2 66 2 Z M27 20 C27 20.66 27 21.32 27 22 C26.01 22.495 26.01 22.495 25 23 C25.66 23 26.32 23 27 23 C27.33 23.66 27.66 24.32 28 25 C28 23.35 28 21.7 28 20 C27.67 20 27.34 20 27 20 Z " fill="#7C7778" transform="translate(208,225)"/>
<path d="M0 0 C19.47 0 38.94 0 59 0 C59 0.66 59 1.32 59 2 C57.35 2 55.7 2 54 2 C54 15.86 54 29.72 54 44 C62.415 43.505 62.415 43.505 71 43 C71.66 43.66 72.32 44.32 73 45 C70.07917545 46.46041228 67.51698631 46.11928796 64.25537109 46.11352539 C63.21617775 46.11374443 63.21617775 46.11374443 62.1559906 46.1139679 C59.86177459 46.11327018 57.56763936 46.10548442 55.2734375 46.09765625 C53.68445887 46.09579157 52.09547966 46.0943679 50.50650024 46.09336853 C46.32090675 46.08954731 42.13534787 46.07972039 37.94976807 46.06866455 C33.68005847 46.05844194 29.4103433 46.05386909 25.140625 46.04882812 C16.76040077 46.03809778 8.38020469 46.02102608 0 46 C0 45.34 0 44.68 0 44 C1.65 44 3.3 44 5 44 C5.33 43.34 5.66 42.68 6 42 C6 42.99 6 43.98 6 45 C7.65 45 9.3 45 11 45 C11 30.48 11 15.96 11 1 C9.35 1 7.7 1 6 1 C6 7.93 6 14.86 6 22 C5.67 22 5.34 22 5 22 C5 15.4 5 8.8 5 2 C3.35 2 1.7 2 0 2 C0 1.34 0 0.68 0 0 Z M17 1 C17 15.52 17 30.04 17 45 C18.98 45 20.96 45 23 45 C23 30.48 23 15.96 23 1 C21.02 1 19.04 1 17 1 Z M39 1 C40.28965176 2.37562854 41.62689293 3.70766393 43 5 C43.66 5 44.32 5 45 5 C45 4.01 45 3.02 45 2 C42.03 1.505 42.03 1.505 39 1 Z M48 1 C46.76732652 2.00836062 46.76732652 2.00836062 46.90234375 4.06640625 C46.91394531 4.89011719 46.92554688 5.71382812 46.9375 6.5625 C46.94652344 7.38878906 46.95554687 8.21507812 46.96484375 9.06640625 C46.97644531 9.70449219 46.98804688 10.34257812 47 11 C46.34 11 45.68 11 45 11 C44.731875 10.236875 44.46375 9.47375 44.1875 8.6875 C42.70915696 5.34177629 41.25870301 3.6293515 38 2 C35.62597499 1.92883618 33.24999323 1.91590915 30.875 1.9375 C27.471875 1.9684375 27.471875 1.9684375 24 2 C24 8.6 24 15.2 24 22 C26.31 22.33 28.62 22.66 31 23 C28.69 23.33 26.38 23.66 24 24 C24 30.6 24 37.2 24 44 C30.93 44 37.86 44 45 44 C44.67 42.02 44.34 40.04 44 38 C44.66 36.68 45.32 35.36 46 34 C46.33 37.63 46.66 41.26 47 45 C48.98 45 50.96 45 53 45 C53 30.48 53 15.96 53 1 C51.35 1 49.7 1 48 1 Z " fill="#BCB4B7" transform="translate(330,225)"/>
<path d="M0 0 C18.15 0 36.3 0 55 0 C54.67 1.32 54.34 2.64 54 4 C53.505 3.01 53.505 3.01 53 2 C50.47266765 1.34444881 50.47266765 1.34444881 48 1 C48.309375 2.051875 48.61875 3.10375 48.9375 4.1875 C49.75685094 7.12752396 50.45483931 10.00161623 51 13 C50.34 12.67 49.68 12.34 49 12 C49 22.23 49 32.46 49 43 C50.65 43.33 52.3 43.66 54 44 C54 44.33 54 44.66 54 45 C49.05 45 44.1 45 39 45 C39 30.48 39 15.96 39 1 C32.36666667 1.23333333 32.36666667 1.23333333 30 4 C27.6171875 3.7578125 27.6171875 3.7578125 24.875 3.125 C23.50988281 2.81949219 23.50988281 2.81949219 22.1171875 2.5078125 C21.06917969 2.25644531 21.06917969 2.25644531 20 2 C19.67 2.66 19.34 3.32 19 4 C19 3.01 19 2.02 19 1 C17.35 1 15.7 1 14 1 C14 15.52 14 30.04 14 45 C12.02 45 10.04 45 8 45 C8 44.67 8 44.34 8 44 C9.65 44 11.3 44 13 44 C13 30.14 13 16.28 13 2 C5.48654434 2.05073755 5.48654434 2.05073755 3.34375 4.84765625 C3.0653125 5.57855469 2.786875 6.30945313 2.5 7.0625 C2.2009375 7.79597656 1.901875 8.52945313 1.59375 9.28515625 C1.3978125 9.85105469 1.201875 10.41695312 1 11 C0.67 10.01 0.34 9.02 0 8 C-0.66 8 -1.32 8 -2 8 C-2 7.34 -2 6.68 -2 6 C-1.34 6 -0.68 6 0 6 C0 4.02 0 2.04 0 0 Z M2 1 C1.67 1.66 1.34 2.32 1 3 C1.99 2.67 2.98 2.34 4 2 C3.34 1.67 2.68 1.34 2 1 Z " fill="#958C8C" transform="translate(132,225)"/>
<path d="M0 0 C19.47 0 38.94 0 59 0 C59 0.66 59 1.32 59 2 C57.35 2 55.7 2 54 2 C54 15.86 54 29.72 54 44 C53.67 44 53.34 44 53 44 C52.82990763 39.80515965 52.66966869 35.6100819 52.51782227 31.41455078 C52.46506769 29.99290306 52.40980787 28.57134567 52.35180664 27.14990234 C51.99516106 18.36091476 52.00119656 9.76114131 53 1 C51.35 1.33 49.7 1.66 48 2 C47.67 4.97 47.34 7.94 47 11 C46.34 11 45.68 11 45 11 C42 6.61538462 42 6.61538462 42 4 C38.28570102 2.8838344 34.60838492 2.6875805 30.75 2.4375 C28.5225 2.293125 26.295 2.14875 24 2 C24 8.6 24 15.2 24 22 C26.31 22 28.62 22 31 22 C31.33 22.66 31.66 23.32 32 24 C29.36 24 26.72 24 24 24 C24 28.95 24 33.9 24 39 C23.67 39 23.34 39 23 39 C23 26.46 23 13.92 23 1 C21.02 1 19.04 1 17 1 C17 10.57 17 20.14 17 30 C16.67 30 16.34 30 16 30 C16 20.76 16 11.52 16 2 C14.68 2 13.36 2 12 2 C12 16.19 12 30.38 12 45 C11.67 45 11.34 45 11 45 C11 30.48 11 15.96 11 1 C9.35 1 7.7 1 6 1 C6 7.93 6 14.86 6 22 C5.67 22 5.34 22 5 22 C5 15.4 5 8.8 5 2 C3.35 2 1.7 2 0 2 C0 1.34 0 0.68 0 0 Z M39 1 C40.28965176 2.37562854 41.62689293 3.70766393 43 5 C43.66 5 44.32 5 45 5 C45 4.01 45 3.02 45 2 C42.03 1.505 42.03 1.505 39 1 Z " fill="#6E6869" transform="translate(330,225)"/>
<path d="M0 0 C1.65 0 3.3 0 5 0 C6.12851941 8.93989777 5.93986692 17.70272693 5.5625 26.6875 C5.5091209 28.08265777 5.45638241 29.47784021 5.40429688 30.87304688 C5.27580064 34.24899351 5.1408966 37.62455204 5 41 C3.35 41 1.7 41 0 41 C-0.86513709 35.89947794 -1.07660709 31.05326265 -0.87890625 25.87890625 C-0.85529526 25.13414536 -0.83168427 24.38938446 -0.80735779 23.62205505 C-0.73144815 21.26864 -0.64711673 18.91561642 -0.5625 16.5625 C-0.50920627 14.95639867 -0.45646652 13.35027886 -0.40429688 11.74414062 C-0.275933 7.82918431 -0.14002102 3.91455601 0 0 Z " fill="#FAF8F7" transform="translate(173,228)"/>
<path d="M0 0 C5.61 0 11.22 0 17 0 C17 0.66 17 1.32 17 2 C15.35 2 13.7 2 12 2 C12 15.86 12 29.72 12 44 C20.415 43.505 20.415 43.505 29 43 C30.485 43.495 30.485 43.495 32 44 C31.34 43.34 30.68 42.68 30 42 C30.33112687 37.89402683 30.84440382 33.96204403 32 30 C32.66 30 33.32 30 34 30 C34.02685095 32.47923801 34.04676547 34.9581884 34.0625 37.4375 C34.07087891 38.14455078 34.07925781 38.85160156 34.08789062 39.58007812 C34.09653588 41.38693559 34.05220011 43.19387603 34 45 C33 46 33 46 30.22436523 46.11352539 C29.01466064 46.10828857 27.80495605 46.10305176 26.55859375 46.09765625 C25.25341797 46.09443359 23.94824219 46.09121094 22.60351562 46.08789062 C21.2148431 46.07953401 19.82617123 46.07106905 18.4375 46.0625 C17.04492344 46.05748666 15.65234519 46.05292347 14.25976562 46.04882812 C10.8398013 46.03699434 7.41992156 46.0205088 4 46 C4 45.67 4 45.34 4 45 C6.97 44.505 6.97 44.505 10 44 C10 30.14 10 16.28 10 2 C8.35 1.67 6.7 1.34 5 1 C5.01047363 1.86165771 5.02094727 2.72331543 5.03173828 3.61108398 C5.066092 6.84837839 5.09103013 10.08557897 5.10986328 13.32299805 C5.1198393 14.71658409 5.13342501 16.11014966 5.15087891 17.50366211 C5.24549371 25.2592936 5.11409413 32.48414568 3 40 C2.67 40 2.34 40 2 40 C2 36.7 2 33.4 2 30 C2.66 30 3.32 30 4 30 C4 20.76 4 11.52 4 2 C2.68 2 1.36 2 0 2 C0 1.34 0 0.68 0 0 Z " fill="#A8A4A4" transform="translate(401,225)"/>
<path d="M0 0 C2.55781522 3.83672283 2.25306456 6.94535987 2.1953125 11.38671875 C2.1924826 12.20372757 2.18965271 13.02073639 2.18673706 13.86250305 C2.17554541 16.47098459 2.1504429 19.0791223 2.125 21.6875 C2.11496888 23.45637525 2.10584326 25.22525588 2.09765625 26.99414062 C2.07731122 31.329666 2.03816134 35.6644483 2 40 C9.92 39.505 9.92 39.505 18 39 C18 32.4 18 25.8 18 19 C18.33 19 18.66 19 19 19 C19.33 25.6 19.66 32.2 20 39 C25.4150362 38.63277818 25.4150362 38.63277818 30.82910156 38.25170898 C31.5094043 38.20860596 32.18970703 38.16550293 32.890625 38.12109375 C33.58188477 38.0739624 34.27314453 38.02683105 34.98535156 37.97827148 C37.13617072 38.00146864 38.94084871 38.4004236 41 39 C40.7215625 37.4221875 40.7215625 37.4221875 40.4375 35.8125 C40.04920669 32.42880118 40.11752515 30.23574112 41 27 C41.33 27 41.66 27 42 27 C42 31.62 42 36.24 42 41 C27.15 41 12.3 41 -3 41 C-3 40.34 -3 39.68 -3 39 C-1.68 39 -0.36 39 1 39 C0.67 28.11 0.34 17.22 0 6 C-2.22004133 12.48976039 -2.22004133 12.48976039 -4.42724609 18.98388672 C-4.70648926 19.79100098 -4.98573242 20.59811523 -5.2734375 21.4296875 C-5.55622559 22.25710449 -5.83901367 23.08452148 -6.13037109 23.93701172 C-7 26 -7 26 -9 28 C-9.33 26.68 -9.66 25.36 -10 24 C-9.34 24 -8.68 24 -8 24 C-7.773125 22.783125 -7.54625 21.56625 -7.3125 20.3125 C-5.77766939 13.32790851 -3.19857423 6.39714847 0 0 Z " fill="#9D9898" transform="translate(206,230)"/>
<path d="M0 0 C3.96 0 7.92 0 12 0 C12 0.66 12 1.32 12 2 C10.35 2 8.7 2 7 2 C7.33 5.63 7.66 9.26 8 13 C9.32 12.01 10.64 11.02 12 10 C11.74863281 11.32451172 11.74863281 11.32451172 11.4921875 12.67578125 C10.13835678 20.65310024 9.92044336 27.16167113 12 35 C10.68 34.34 9.36 33.68 8 33 C7.67 37.29 7.34 41.58 7 46 C5.35 45.67 3.7 45.34 2 45 C2 44.34 2 43.68 2 43 C1.34 43 0.68 43 0 43 C0.33 41.68 0.66 40.36 1 39 C1.66 40.65 2.32 42.3 3 44 C3.99 44 4.98 44 6 44 C5.99388572 36.09207518 5.99388572 36.09207518 2.4375 29.3125 C1.633125 28.549375 0.82875 27.78625 0 27 C0.33 26.34 0.66 25.68 1 25 C2.32 25.66 3.64 26.32 5 27 C5 18.75 5 10.5 5 2 C3.35 2 1.7 2 0 2 C0 1.34 0 0.68 0 0 Z " fill="#B4A6A6" transform="translate(93,225)"/>
<path d="M0 0 C1.32 0 2.64 0 4 0 C4 13.86 4 27.72 4 42 C2.68 42 1.36 42 0 42 C0 28.14 0 14.28 0 0 Z " fill="#F4F1F2" transform="translate(342,227)"/>
<path d="M0 0 C2.31 0 4.62 0 7 0 C7 1.65 7 3.3 7 5 C7.99 5.33 8.98 5.66 10 6 C10.33 7.65 10.66 9.3 11 11 C10.34 10.67 9.68 10.34 9 10 C9 20.23 9 30.46 9 41 C10.65 41.33 12.3 41.66 14 42 C14 42.33 14 42.66 14 43 C9.05 43 4.1 43 -1 43 C-0.67 40.36 -0.34 37.72 0 35 C0.33 35 0.66 35 1 35 C1 37.31 1 39.62 1 42 C2.65 42 4.3 42 6 42 C6 28.47 6 14.94 6 1 C4.35 1 2.7 1 1 1 C1 9.25 1 17.5 1 26 C0.67 26 0.34 26 0 26 C0 17.42 0 8.84 0 0 Z " fill="#AFA7A7" transform="translate(172,227)"/>
<path d="M0 0 C0.99 0 1.98 0 3 0 C3 13.86 3 27.72 3 42 C2.01 42 1.02 42 0 42 C0 28.14 0 14.28 0 0 Z " fill="#F3F0F2" transform="translate(215,227)"/>
<path d="M0 0 C2.79192205 -0.05380578 5.5828141 -0.09357669 8.375 -0.125 C9.1690625 -0.14175781 9.963125 -0.15851563 10.78125 -0.17578125 C12.85492015 -0.19335473 14.92883241 -0.10335168 17 0 C17.66 0.66 18.32 1.32 19 2 C13.39 2 7.78 2 2 2 C2 7.94 2 13.88 2 20 C9.24822148 19.35954625 9.24822148 19.35954625 13 18 C13 21.96 13 25.92 13 30 C11 26 11 26 10 23 C7.03 23 4.06 23 1 23 C0.03911617 20.11734851 -0.11670941 18.32337729 -0.09765625 15.33203125 C-0.09443359 14.43935547 -0.09121094 13.54667969 -0.08789062 12.62695312 C-0.07951172 11.69818359 -0.07113281 10.76941406 -0.0625 9.8125 C-0.05798828 8.87212891 -0.05347656 7.93175781 -0.04882812 6.96289062 C-0.03704626 4.64186288 -0.02059558 2.32096356 0 0 Z M11 19 C11 19.66 11 20.32 11 21 C10.01 21.495 10.01 21.495 9 22 C9.66 22 10.32 22 11 22 C11.33 22.66 11.66 23.32 12 24 C12 22.35 12 20.7 12 19 C11.67 19 11.34 19 11 19 Z " fill="#8E8186" transform="translate(224,226)"/>
<path d="M0 0 C3.0625 0.375 3.0625 0.375 5 2 C6.43754343 5.21333238 6.07623739 7.04414856 5.0625 10.375 C2.0625 12.375 2.0625 12.375 -1 12.1875 C-3.9375 11.375 -3.9375 11.375 -5.9375 8.375 C-5.54390773 3.55349464 -5.27739237 0.67370966 0 0 Z " fill="#C7BFBE" transform="translate(442.9375,258.625)"/>
<path d="M0 0 C1.27423828 -0.00193359 1.27423828 -0.00193359 2.57421875 -0.00390625 C3.91419922 0.00189453 3.91419922 0.00189453 5.28125 0.0078125 C6.17457031 0.00394531 7.06789063 0.00007812 7.98828125 -0.00390625 C8.83777344 -0.00261719 9.68726563 -0.00132812 10.5625 0 C11.34689453 0.00112793 12.13128906 0.00225586 12.93945312 0.00341797 C14.78125 0.1328125 14.78125 0.1328125 15.78125 1.1328125 C15.85438567 3.66330652 15.87372527 6.16586087 15.84375 8.6953125 C15.83923828 9.40623047 15.83472656 10.11714844 15.83007812 10.84960938 C15.81825864 12.61071263 15.80032263 14.37177286 15.78125 16.1328125 C15.45125 16.1328125 15.12125 16.1328125 14.78125 16.1328125 C14.78125 11.5128125 14.78125 6.8928125 14.78125 2.1328125 C8.51125 2.1328125 2.24125 2.1328125 -4.21875 2.1328125 C-4.21875 8.7328125 -4.21875 15.3328125 -4.21875 22.1328125 C-2.56875 22.1328125 -0.91875 22.1328125 0.78125 22.1328125 C0.78125 22.7928125 0.78125 23.4528125 0.78125 24.1328125 C-4.49875 24.1328125 -9.77875 24.1328125 -15.21875 24.1328125 C-15.21875 23.4728125 -15.21875 22.8128125 -15.21875 22.1328125 C-13.89875 22.1328125 -12.57875 22.1328125 -11.21875 22.1328125 C-10.88875 21.4728125 -10.55875 20.8128125 -10.21875 20.1328125 C-9.88875 20.7928125 -9.55875 21.4528125 -9.21875 22.1328125 C-7.19411745 22.78494542 -7.19411745 22.78494542 -5.21875 23.1328125 C-5.22398682 22.471604 -5.22922363 21.81039551 -5.23461914 21.12915039 C-5.25532656 18.15121399 -5.26839012 15.17329268 -5.28125 12.1953125 C-5.28962891 11.15439453 -5.29800781 10.11347656 -5.30664062 9.04101562 C-5.30986328 8.05166016 -5.31308594 7.06230469 -5.31640625 6.04296875 C-5.32164307 5.12652588 -5.32687988 4.21008301 -5.33227539 3.26586914 C-5.12892138 -0.55499967 -3.36717472 0.00484187 0 0 Z " fill="#7A7373" transform="translate(320.21875,246.8671875)"/>
<path d="M0 0 C2.55781522 3.83672283 2.25306456 6.94535987 2.1953125 11.38671875 C2.1924826 12.20372757 2.18965271 13.02073639 2.18673706 13.86250305 C2.17554541 16.47098459 2.1504429 19.0791223 2.125 21.6875 C2.11496888 23.45637525 2.10584326 25.22525588 2.09765625 26.99414062 C2.07560942 31.32955949 2.0410867 35.66472145 2 40 C1.67 40 1.34 40 1 40 C0.67 28.78 0.34 17.56 0 6 C-2.22004133 12.48976039 -2.22004133 12.48976039 -4.42724609 18.98388672 C-4.70648926 19.79100098 -4.98573242 20.59811523 -5.2734375 21.4296875 C-5.55622559 22.25710449 -5.83901367 23.08452148 -6.13037109 23.93701172 C-7 26 -7 26 -9 28 C-9.33 26.68 -9.66 25.36 -10 24 C-9.34 24 -8.68 24 -8 24 C-7.773125 22.783125 -7.54625 21.56625 -7.3125 20.3125 C-5.77766939 13.32790851 -3.19857423 6.39714847 0 0 Z " fill="#81797A" transform="translate(206,230)"/>
<path d="M0 0 C0.33 0 0.66 0 1 0 C1.13277344 1.02480469 1.26554687 2.04960937 1.40234375 3.10546875 C1.58064088 4.4661574 1.75903123 5.82683385 1.9375 7.1875 C2.02451172 7.86103516 2.11152344 8.53457031 2.20117188 9.22851562 C2.67825477 12.85081166 3.23012035 16.42803585 4 20 C2.68 19.34 1.36 18.68 0 18 C-0.33 22.29 -0.66 26.58 -1 31 C-2.65 30.67 -4.3 30.34 -6 30 C-6 29.34 -6 28.68 -6 28 C-6.66 28 -7.32 28 -8 28 C-7.67 26.68 -7.34 25.36 -7 24 C-6.34 25.65 -5.68 27.3 -5 29 C-4.01 29 -3.02 29 -2 29 C-2.01047363 28.33468262 -2.02094727 27.66936523 -2.03173828 26.98388672 C-2.07350465 23.9476301 -2.09939152 20.91143414 -2.125 17.875 C-2.15013672 16.30492187 -2.15013672 16.30492187 -2.17578125 14.703125 C-2.20929909 9.40730664 -2.17213685 4.9428941 0 0 Z " fill="#C7BFBE" transform="translate(101,240)"/>
<path d="M0 0 C4.62 0 9.24 0 14 0 C14 1.98 14 3.96 14 6 C14.66 6.33 15.32 6.66 16 7 C15.01 8.98 14.02 10.96 13 13 C12.67 13 12.34 13 12 13 C11.67 9.37 11.34 5.74 11 2 C7.7 1.67 4.4 1.34 1 1 C1 15.19 1 29.38 1 44 C0.67 44 0.34 44 0 44 C0 29.48 0 14.96 0 0 Z M11 1 C11.66 1.66 12.32 2.32 13 3 C13 2.34 13 1.68 13 1 C12.34 1 11.68 1 11 1 Z " fill="#434140" transform="translate(263,226)"/>
<path d="M0 0 C0.66 0 1.32 0 2 0 C2.02685095 2.47923801 2.04676547 4.9581884 2.0625 7.4375 C2.07087891 8.14455078 2.07925781 8.85160156 2.08789062 9.58007812 C2.09653588 11.38693559 2.05220011 13.19387603 2 15 C1 16 1 16 -1.77563477 16.11352539 C-2.98533936 16.10828857 -4.19504395 16.10305176 -5.44140625 16.09765625 C-6.74658203 16.09443359 -8.05175781 16.09121094 -9.39648438 16.08789062 C-10.7851569 16.07953401 -12.17382877 16.07106905 -13.5625 16.0625 C-14.95507656 16.05748666 -16.34765481 16.05292347 -17.74023438 16.04882812 C-21.1601987 16.03699434 -24.58007844 16.0205088 -28 16 C-28 15.67 -28 15.34 -28 15 C-18.76 15 -9.52 15 0 15 C-0.66 14.01 -1.32 13.02 -2 12 C-1.67370401 7.88867059 -1.15681413 3.96621988 0 0 Z " fill="#DBD2D3" transform="translate(433,255)"/>
<path d="M0 0 C4.62 0 9.24 0 14 0 C13.67 0.66 13.34 1.32 13 2 C10.03 1.505 10.03 1.505 7 1 C7 2.65 7 4.3 7 6 C7.99 6.33 8.98 6.66 10 7 C9.67 7.66 9.34 8.32 9 9 C8.67 9 8.34 9 8 9 C7.67 20.22 7.34 31.44 7 43 C6.67 43 6.34 43 6 43 C6 29.47 6 15.94 6 2 C4.02 2 2.04 2 0 2 C0 1.34 0 0.68 0 0 Z " fill="#A59B9B" transform="translate(65,225)"/>
<path d="M0 0 C0.33 0 0.66 0 1 0 C1 13.86 1 27.72 1 42 C2.65 42 4.3 42 6 42 C6 42.66 6 43.32 6 44 C0.06 44 -5.88 44 -12 44 C-12 43.67 -12 43.34 -12 43 C-6.555 42.505 -6.555 42.505 -1 42 C-0.67 28.14 -0.34 14.28 0 0 Z " fill="#CAC2C3" transform="translate(152,227)"/>
<path d="M0 0 C5.28 0 10.56 0 16 0 C16 0.66 16 1.32 16 2 C14.68 2.33 13.36 2.66 12 3 C11.67 9.27 11.34 15.54 11 22 C10.67 22 10.34 22 10 22 C10 15.07 10 8.14 10 1 C8.02 1 6.04 1 4 1 C4 6.94 4 12.88 4 19 C3.67 19 3.34 19 3 19 C3 13.39 3 7.78 3 2 C2.01 2 1.02 2 0 2 C0 1.34 0 0.68 0 0 Z " fill="#7C797A" transform="translate(305,225)"/>
<path d="M0 0 C0.33 0 0.66 0 1 0 C1.33 10.56 1.66 21.12 2 32 C3.98 32.33 5.96 32.66 8 33 C8 33.66 8 34.32 8 35 C3.71 35 -0.58 35 -5 35 C-5 34.34 -5 33.68 -5 33 C-3.35 33 -1.7 33 0 33 C0 22.11 0 11.22 0 0 Z " fill="#EFE2E2" transform="translate(70,236)"/>
<path d="M0 0 C1.98 0 3.96 0 6 0 C6 0.33 6 0.66 6 1 C4.35 1 2.7 1 1 1 C1.33 14.2 1.66 27.4 2 41 C2.99 41.33 3.98 41.66 5 42 C5 42.66 5 43.32 5 44 C3.35 44 1.7 44 0 44 C0 29.48 0 14.96 0 0 Z " fill="#ECE9EA" transform="translate(264,227)"/>
<path d="M0 0 C0.33 0 0.66 0 1 0 C1.02505615 0.77190674 1.0501123 1.54381348 1.07592773 2.33911133 C1.19184007 5.83041181 1.31458824 9.32143922 1.4375 12.8125 C1.47681641 14.02744141 1.51613281 15.24238281 1.55664062 16.49414062 C1.61948242 18.23920898 1.61948242 18.23920898 1.68359375 20.01953125 C1.72025146 21.09307861 1.75690918 22.16662598 1.79467773 23.27270508 C1.89541847 26.09311553 1.89541847 26.09311553 3 29 C4.65 29.33 6.3 29.66 8 30 C8 30.33 8 30.66 8 31 C3.05 31 -1.9 31 -7 31 C-6.67 28.36 -6.34 25.72 -6 23 C-5.67 23 -5.34 23 -5 23 C-5 25.31 -5 27.62 -5 30 C-3.35 30 -1.7 30 0 30 C0 20.1 0 10.2 0 0 Z " fill="#E6DBDE" transform="translate(178,239)"/>
<path d="M0 0 C0.66 0 1.32 0 2 0 C2 3.96 2 7.92 2 12 C0 8 0 8 -1 5 C-3.97 5 -6.94 5 -10 5 C-10 4.01 -10 3.02 -10 2 C-9.04287109 1.90912109 -9.04287109 1.90912109 -8.06640625 1.81640625 C-6.82697266 1.69072266 -6.82697266 1.69072266 -5.5625 1.5625 C-4.73878906 1.48128906 -3.91507813 1.40007812 -3.06640625 1.31640625 C-1.01337975 1.21069185 -1.01337975 1.21069185 0 0 Z M0 1 C0 1.66 0 2.32 0 3 C-0.99 3.495 -0.99 3.495 -2 4 C-1.34 4 -0.68 4 0 4 C0.33 4.66 0.66 5.32 1 6 C1 4.35 1 2.7 1 1 C0.67 1 0.34 1 0 1 Z " fill="#9F9596" transform="translate(235,244)"/>
<path d="M0 0 C0.66 0 1.32 0 2 0 C2 5.61 2 11.22 2 17 C1.01 16.67 0.02 16.34 -1 16 C-1.02725341 14.2709226 -1.04650987 12.54171824 -1.0625 10.8125 C-1.07410156 9.84957031 -1.08570313 8.88664063 -1.09765625 7.89453125 C-1.00486622 5.14423487 -0.62111685 2.67520409 0 0 Z " fill="#B1A5A7" transform="translate(364,239)"/>
<path d="M0 0 C4.62 0 9.24 0 14 0 C14 1.98 14 3.96 14 6 C14.66 6.33 15.32 6.66 16 7 C15.01 8.98 14.02 10.96 13 13 C12.67 13 12.34 13 12 13 C11.67 9.37 11.34 5.74 11 2 C7.37 1.67 3.74 1.34 0 1 C0 0.67 0 0.34 0 0 Z M11 1 C11.66 1.66 12.32 2.32 13 3 C13 2.34 13 1.68 13 1 C12.34 1 11.68 1 11 1 Z " fill="#807878" transform="translate(263,226)"/>
<path d="M0 0 C0.99 0.33 1.98 0.66 3 1 C3 4.96 3 8.92 3 13 C2.67 13 2.34 13 2 13 C1.67 11.02 1.34 9.04 1 7 C-0.65 9.31 -2.3 11.62 -4 14 C-4.66 13.67 -5.32 13.34 -6 13 C-5.38125 11.96875 -4.7625 10.9375 -4.125 9.875 C-2.29301955 6.68527517 -1.0364253 3.54111979 0 0 Z " fill="#ADAAAA" transform="translate(306,252)"/>
<path d="M0 0 C0.66 0.99 1.32 1.98 2 3 C1.34 3.66 0.68 4.32 0 5 C-0.66 4.67 -1.32 4.34 -2 4 C-2.33 4.99 -2.66 5.98 -3 7 C-7.40914783 8.10228696 -11.48382401 8.07654536 -16 8 C-16.66 6.68 -17.32 5.36 -18 4 C-17.484375 4.350625 -16.96875 4.70125 -16.4375 5.0625 C-12.95944178 6.4002147 -10.59792166 5.82057862 -7 5 C-4.17564966 3.55644316 -2.23825902 2.23825902 0 0 Z " fill="#A19B9B" transform="translate(130,263)"/>
<path d="M0 0 C0.33 0 0.66 0 1 0 C1 3.96 1 7.92 1 12 C-1.64 12 -4.28 12 -7 12 C-6.34 11.34 -5.68 10.68 -5 10 C-2.875 10.375 -2.875 10.375 -1 11 C-1.66 10.34 -2.32 9.68 -3 9 C-2.6442194 5.62008426 -1.64284201 2.95711562 0 0 Z " fill="#84767C" transform="translate(376,258)"/>
<path d="M0 0 C0.33 0 0.66 0 1 0 C1 2.97 1 5.94 1 9 C0.34 8.67 -0.32 8.34 -1 8 C-1.33 9.32 -1.66 10.64 -2 12 C-2.66 12 -3.32 12 -4 12 C-4 8.37 -4 4.74 -4 1 C-3.01 1.495 -3.01 1.495 -2 2 C-2 2.66 -2 3.32 -2 4 C-1.34 4 -0.68 4 0 4 C-0.33 3.01 -0.66 2.02 -1 1 C-0.67 0.67 -0.34 0.34 0 0 Z " fill="#9E9698" transform="translate(247,227)"/>
<path d="M0 0 C0.66 0.33 1.32 0.66 2 1 C2 1.66 2 2.32 2 3 C2.99 3 3.98 3 5 3 C4.67 3.66 4.34 4.32 4 5 C3.113125 4.649375 2.22625 4.29875 1.3125 3.9375 C-3.15708314 2.67252364 -5.69909548 3.56636516 -10 5 C-10 4.01 -10 3.02 -10 2 C-6.33134759 -0.44576827 -4.32799657 -0.23607254 0 0 Z " fill="#A9A3A4" transform="translate(294,224)"/>
<path d="M0 0 C0.66 0.66 1.32 1.32 2 2 C4.44012949 2.24287489 4.44012949 2.24287489 7.125 2.125 C8.03507812 2.10695313 8.94515625 2.08890625 9.8828125 2.0703125 C10.58148438 2.04710937 11.28015625 2.02390625 12 2 C12 2.66 12 3.32 12 4 C6.72 4 1.44 4 -4 4 C-4 3.34 -4 2.68 -4 2 C-2.68 2 -1.36 2 0 2 C0 1.34 0 0.68 0 0 Z " fill="#B7B0B0" transform="translate(309,267)"/>
<path d="M0 0 C-2 2 -2 2 -3.87939453 2.13525391 C-4.62302246 2.08288574 -5.36665039 2.03051758 -6.1328125 1.9765625 C-6.93847656 1.925 -7.74414062 1.8734375 -8.57421875 1.8203125 C-9.41597656 1.75585938 -10.25773437 1.69140625 -11.125 1.625 C-11.97449219 1.56828125 -12.82398438 1.5115625 -13.69921875 1.453125 C-15.8001345 1.31149023 -17.90017334 1.15695674 -20 1 C-20 0.67 -20 0.34 -20 0 C-17.60458732 -0.19585135 -15.20907226 -0.38192107 -12.8125 -0.5625 C-11.80219727 -0.64661133 -11.80219727 -0.64661133 -10.77148438 -0.73242188 C-6.982869 -1.00963763 -3.68172206 -0.96511161 0 0 Z " fill="#A49C9D" transform="translate(403,269)"/>
<path d="M0 0 C0 0.66 0 1.32 0 2 C-4.29 2 -8.58 2 -13 2 C-13 1.34 -13 0.68 -13 0 C-8.38926889 -1.29676812 -4.66159911 -0.71109139 0 0 Z " fill="#BAB1B0" transform="translate(78,269)"/>
<path d="M0 0 C0.66 0 1.32 0 2 0 C2.433125 0.495 2.86625 0.99 3.3125 1.5 C4.93287532 3.22425495 4.93287532 3.22425495 7.4375 3.3125 C10.0602702 2.99264998 11.74208944 2.33802108 14 1 C13.34 2.32 12.68 3.64 12 5 C3.80743982 5.4726477 3.80743982 5.4726477 0.4375 3.5 C-0.036875 3.005 -0.51125 2.51 -1 2 C-0.67 1.34 -0.34 0.68 0 0 Z " fill="#A39A9A" transform="translate(283,266)"/>
<path d="M0 0 C0.33 0 0.66 0 1 0 C1 2.31 1 4.62 1 7 C2.546875 6.443125 2.546875 6.443125 4.125 5.875 C8.33375955 4.92463494 10.12163756 5.29730429 14 7 C14 7.33 14 7.66 14 8 C9.05 8 4.1 8 -1 8 C-0.67 5.36 -0.34 2.72 0 0 Z " fill="#948C8C" transform="translate(172,262)"/>
<path d="M0 0 C3.96 0 7.92 0 12 0 C12 0.66 12 1.32 12 2 C7.6835078 2.76173392 4.25566547 3.16063604 0 2 C0 1.34 0 0.68 0 0 Z " fill="#ABA1A2" transform="translate(93,225)"/>
<path d="M0 0 C0.66 0 1.32 0 2 0 C2.33 0.99 2.66 1.98 3 3 C3.66 2.67 4.32 2.34 5 2 C5 5.3 5 8.6 5 12 C3 11 3 11 2.1484375 8.49609375 C1.89320313 7.48675781 1.63796875 6.47742188 1.375 5.4375 C1.11460937 4.42558594 0.85421875 3.41367188 0.5859375 2.37109375 C0.39257812 1.58863281 0.19921875 0.80617187 0 0 Z " fill="#C8C4C4" transform="translate(303,234)"/>
<path d="M0 0 C0.33 0 0.66 0 1 0 C1 3.96 1 7.92 1 12 C0.01 11.67 -0.98 11.34 -2 11 C-1.125 3.375 -1.125 3.375 0 0 Z " fill="#8E8887" transform="translate(433,256)"/>
<path d="M0 0 C0.33 0 0.66 0 1 0 C1.33 3.96 1.66 7.92 2 12 C2.99 12.33 3.98 12.66 5 13 C5 13.66 5 14.32 5 15 C3.35 15 1.7 15 0 15 C0 10.05 0 5.1 0 0 Z " fill="#DED9D9" transform="translate(264,256)"/>
<path d="M0 0 C2.97 0.495 2.97 0.495 6 1 C6 3.31 6 5.62 6 8 C1.125 3.375 1.125 3.375 0 0 Z " fill="#9E9694" transform="translate(93,250)"/>
<path d="M0 0 C2.01822917 0.06510417 4.03645833 0.13020833 6.0546875 0.1953125 C2.7901847 3.4598153 -1.35578549 4.12767305 -5.8828125 4.3203125 C-6.5634375 4.2790625 -7.2440625 4.2378125 -7.9453125 4.1953125 C-7.3265625 3.9065625 -6.7078125 3.6178125 -6.0703125 3.3203125 C-3.70151096 2.0662411 -2.68157484 0.26923442 0 0 Z " fill="#B7B4B4" transform="translate(387.9453125,322.8046875)"/>
<path d="M0 0 C1.32 0 2.64 0 4 0 C4 1.98 4 3.96 4 6 C3.67 5.34 3.34 4.68 3 4 C2.34 4 1.68 4 1 4 C0.67 4.66 0.34 5.32 0 6 C0 4.02 0 2.04 0 0 Z " fill="#A29594" transform="translate(441,262)"/>
<path d="M0 0 C1.65 0.33 3.3 0.66 5 1 C4.67 1.66 4.34 2.32 4 3 C3.34 3 2.68 3 2 3 C2 3.66 2 4.32 2 5 C1.01 5 0.02 5 -1 5 C-0.67 3.35 -0.34 1.7 0 0 Z " fill="#CAC2C3" transform="translate(278,227)"/>
<path d="M0 0 C0.33 0.99 0.66 1.98 1 3 C-0.40445835 5.2636564 -2.1967913 7.0208685 -4 9 C-4.66 8.67 -5.32 8.34 -6 8 C-4.02 5.36 -2.04 2.72 0 0 Z " fill="#AFAEAE" transform="translate(33,219)"/>
<path d="M0 0 C0.1875 2.375 0.1875 2.375 0 5 C-0.99 5.66 -1.98 6.32 -3 7 C-3.33 5.02 -3.66 3.04 -4 1 C-1 0 -1 0 0 0 Z " fill="#A49F9E" transform="translate(196,262)"/>
<path d="M0 0 C1.09898702 3.29696105 0.87124444 4.40494903 0.0625 7.6875 C-0.22947266 8.89986328 -0.22947266 8.89986328 -0.52734375 10.13671875 C-0.68332031 10.75160156 -0.83929688 11.36648437 -1 12 C-1.33 12 -1.66 12 -2 12 C-2.24954005 10.56589632 -2.47392642 9.12739928 -2.6875 7.6875 C-2.81511719 6.88699219 -2.94273438 6.08648437 -3.07421875 5.26171875 C-3 3 -3 3 -1.51953125 1.20703125 C-1.01808594 0.80871094 -0.51664062 0.41039062 0 0 Z " fill="#8B8889" transform="translate(104,235)"/>
<path d="M0 0 C2.05078125 0.03255208 4.1015625 0.06510417 6.15234375 0.09765625 C6.15234375 0.42765625 6.15234375 0.75765625 6.15234375 1.09765625 C3.15234375 2.09765625 0.15234375 3.09765625 -2.84765625 4.09765625 C-2.84765625 0.15051037 -2.84765625 0.15051037 0 0 Z " fill="#B1A7AA" transform="translate(286.84765625,224.90234375)"/>
<path d="" fill="#000000" transform="translate(0,0)"/>
<path d="" fill="#000000" transform="translate(0,0)"/>
<path d="" fill="#000000" transform="translate(0,0)"/>
<path d="" fill="#000000" transform="translate(0,0)"/>
<path d="" fill="#000000" transform="translate(0,0)"/>
<path d="" fill="#000000" transform="translate(0,0)"/>
<path d="" fill="#000000" transform="translate(0,0)"/>
<path d="" fill="#000000" transform="translate(0,0)"/>
<path d="" fill="#000000" transform="translate(0,0)"/>
<path d="" fill="#000000" transform="translate(0,0)"/>
<path d="" fill="#000000" transform="translate(0,0)"/>
<path d="" fill="#000000" transform="translate(0,0)"/>
<path d="" fill="#000000" transform="translate(0,0)"/>
<path d="" fill="#000000" transform="translate(0,0)"/>
<path d="" fill="#000000" transform="translate(0,0)"/>
<path d="" fill="#000000" transform="translate(0,0)"/>
<path d="" fill="#000000" transform="translate(0,0)"/>
<path d="" fill="#000000" transform="translate(0,0)"/>
<path d="" fill="#000000" transform="translate(0,0)"/>
<path d="" fill="#000000" transform="translate(0,0)"/>
<path d="" fill="#000000" transform="translate(0,0)"/>
<path d="" fill="#000000" transform="translate(0,0)"/>
<path d="" fill="#000000" transform="translate(0,0)"/>
<path d="" fill="#000000" transform="translate(0,0)"/>
<path d="" fill="#000000" transform="translate(0,0)"/>
<path d="" fill="#000000" transform="translate(0,0)"/>
<path d="" fill="#000000" transform="translate(0,0)"/>
<path d="" fill="#000000" transform="translate(0,0)"/>
<path d="" fill="#000000" transform="translate(0,0)"/>
<path d="" fill="#000000" transform="translate(0,0)"/>
<path d="" fill="#000000" transform="translate(0,0)"/>
<path d="" fill="#000000" transform="translate(0,0)"/>
<path d="" fill="#000000" transform="translate(0,0)"/>
<path d="" fill="#000000" transform="translate(0,0)"/>
<path d="" fill="#000000" transform="translate(0,0)"/>
<path d="" fill="#000000" transform="translate(0,0)"/>
<path d="" fill="#000000" transform="translate(0,0)"/>
<path d="" fill="#000000" transform="translate(0,0)"/>
<path d="" fill="#000000" transform="translate(0,0)"/>
<path d="" fill="#000000" transform="translate(0,0)"/>
<path d="" fill="#000000" transform="translate(0,0)"/>
<path d="" fill="#000000" transform="translate(0,0)"/>
<path d="" fill="#000000" transform="translate(0,0)"/>
<path d="" fill="#000000" transform="translate(0,0)"/>
<path d="" fill="#000000" transform="translate(0,0)"/>
<path d="" fill="#000000" transform="translate(0,0)"/>
<path d="" fill="#000000" transform="translate(0,0)"/>
<path d="" fill="#000000" transform="translate(0,0)"/>
<path d="" fill="#000000" transform="translate(0,0)"/>
<path d="" fill="#000000" transform="translate(0,0)"/>
<path d="" fill="#000000" transform="translate(0,0)"/>
<path d="" fill="#000000" transform="translate(0,0)"/>
<path d="" fill="#000000" transform="translate(0,0)"/>
<path d="" fill="#000000" transform="translate(0,0)"/>
<path d="" fill="#000000" transform="translate(0,0)"/>
<path d="" fill="#000000" transform="translate(0,0)"/>
<path d="" fill="#000000" transform="translate(0,0)"/>
<path d="" fill="#000000" transform="translate(0,0)"/>
<path d="" fill="#000000" transform="translate(0,0)"/>
</svg>
